<svg id="svg" version="1.1" xmlns="http://www.w3.org/2000/svg" xmlns:xlink="http://www.w3.org/1999/xlink" width="400" height="232.6530612244898" viewBox="0, 0, 400,232.6530612244898"><g id="svgg"><path id="path0" d="M189.180 18.883 C 185.389 19.086,182.339 19.458,181.707 19.794 C 181.500 19.904,180.348 20.107,179.147 20.244 C 177.946 20.381,176.387 20.692,175.684 20.934 C 174.980 21.177,173.723 21.494,172.891 21.640 C 172.059 21.785,170.698 22.146,169.866 22.441 C 169.034 22.736,167.097 23.373,165.561 23.857 C 164.026 24.341,162.442 24.920,162.042 25.142 C 161.641 25.365,160.961 25.621,160.529 25.712 C 159.825 25.860,156.797 27.175,155.905 27.720 C 155.713 27.837,155.215 28.088,154.799 28.277 C 153.283 28.968,152.517 29.335,151.891 29.673 C 151.539 29.862,150.963 30.170,150.611 30.355 C 149.573 30.904,146.678 32.587,144.987 33.624 C 143.279 34.672,141.041 36.223,139.278 37.579 C 139.028 37.772,138.744 37.929,138.647 37.929 C 138.499 37.929,135.903 40.070,132.403 43.080 C 131.332 44.001,127.598 47.458,127.034 48.051 C 125.406 49.763,120.181 55.839,119.530 56.777 C 119.307 57.097,118.811 57.778,118.426 58.290 C 118.042 58.802,117.481 59.587,117.181 60.035 C 116.880 60.483,116.413 61.101,116.142 61.408 C 115.870 61.716,115.649 62.061,115.649 62.176 C 115.649 62.377,113.819 65.149,113.529 65.387 C 113.451 65.451,113.175 65.987,112.916 66.578 C 112.656 67.170,112.322 67.729,112.172 67.821 C 112.023 67.914,111.647 68.529,111.337 69.190 C 111.027 69.850,110.674 70.547,110.554 70.739 C 110.433 70.931,110.122 71.525,109.862 72.060 C 109.603 72.594,109.291 73.223,109.168 73.456 C 108.216 75.265,106.203 79.968,105.999 80.861 C 105.911 81.245,105.682 81.734,105.489 81.947 C 105.297 82.161,104.942 83.103,104.700 84.042 C 104.459 84.980,104.048 86.162,103.788 86.669 C 103.529 87.176,103.314 87.909,103.311 88.298 C 103.308 88.687,103.101 89.457,102.850 90.010 C 102.599 90.562,102.236 91.923,102.042 93.035 C 101.848 94.146,101.484 95.594,101.233 96.253 C 100.968 96.949,100.716 98.360,100.632 99.627 C 100.358 103.749,99.952 104.461,97.601 104.945 C 96.841 105.102,96.019 105.335,95.775 105.464 C 95.531 105.593,94.037 105.894,92.455 106.132 C 90.873 106.371,89.293 106.711,88.943 106.889 C 88.593 107.067,87.576 107.338,86.683 107.491 C 85.789 107.644,84.941 107.866,84.798 107.985 C 84.655 108.104,83.659 108.418,82.583 108.683 C 81.508 108.949,80.282 109.368,79.859 109.615 C 79.435 109.862,78.925 110.064,78.725 110.064 C 78.524 110.064,77.548 110.430,76.556 110.878 C 75.564 111.326,74.596 111.693,74.406 111.693 C 74.215 111.693,73.810 111.888,73.504 112.126 C 73.199 112.365,72.688 112.637,72.368 112.731 C 72.048 112.826,71.419 113.143,70.971 113.437 C 69.204 114.595,68.094 115.310,67.707 115.541 C 65.827 116.657,63.467 119.431,62.103 122.126 L 61.200 123.909 61.199 127.228 L 61.198 130.547 62.062 132.347 C 64.126 136.646,68.204 140.751,72.511 142.864 C 73.038 143.122,73.597 143.487,73.752 143.674 C 73.907 143.860,74.418 144.136,74.888 144.287 C 75.357 144.437,75.951 144.749,76.207 144.979 C 76.463 145.210,76.987 145.474,77.371 145.566 C 77.755 145.658,78.668 146.032,79.400 146.398 C 80.132 146.763,80.866 147.062,81.031 147.062 C 81.195 147.062,81.800 147.310,82.375 147.612 C 82.950 147.915,83.997 148.294,84.700 148.455 C 85.404 148.616,86.294 148.934,86.678 149.161 C 87.062 149.389,88.005 149.702,88.773 149.858 C 89.540 150.013,90.445 150.282,90.783 150.456 C 91.121 150.629,92.215 150.940,93.215 151.146 C 94.214 151.353,95.404 151.710,95.858 151.940 C 96.312 152.170,97.155 152.433,97.731 152.523 C 98.307 152.614,99.769 152.993,100.980 153.365 C 102.190 153.738,103.447 154.045,103.772 154.048 C 104.097 154.051,104.834 154.271,105.410 154.536 C 105.986 154.802,107.147 155.108,107.990 155.218 C 108.833 155.327,110.299 155.674,111.247 155.988 C 112.196 156.302,113.653 156.632,114.485 156.722 C 115.317 156.813,116.417 157.074,116.928 157.303 C 117.440 157.533,118.592 157.792,119.488 157.879 C 120.384 157.967,122.373 158.334,123.909 158.696 C 125.445 159.057,127.467 159.422,128.403 159.506 C 129.339 159.590,130.512 159.802,131.009 159.978 C 131.506 160.153,132.991 160.413,134.310 160.555 C 135.628 160.698,138.069 161.063,139.732 161.368 C 141.396 161.672,144.276 162.037,146.131 162.178 C 147.987 162.319,150.081 162.589,150.785 162.778 C 151.489 162.967,153.931 163.224,156.212 163.348 C 158.492 163.473,161.215 163.679,162.262 163.806 C 163.309 163.933,165.160 164.153,166.376 164.294 C 167.592 164.435,172.199 164.696,176.614 164.874 C 181.030 165.052,186.370 165.324,188.482 165.480 C 194.777 165.944,222.699 165.870,226.527 165.379 C 228.191 165.166,231.803 164.925,234.555 164.845 C 237.307 164.764,240.186 164.605,240.954 164.493 C 241.722 164.380,243.450 164.127,244.793 163.930 C 246.137 163.733,248.658 163.473,250.394 163.351 C 252.131 163.229,254.434 162.924,255.513 162.674 C 256.592 162.423,258.313 162.151,259.337 162.069 C 260.361 161.986,261.931 161.727,262.827 161.491 C 263.723 161.256,264.980 160.997,265.620 160.915 C 268.339 160.569,270.044 160.252,270.727 159.967 C 271.129 159.799,272.133 159.589,272.959 159.501 C 274.427 159.344,275.594 159.083,277.952 158.386 C 278.592 158.197,279.744 157.971,280.512 157.884 C 281.280 157.798,282.355 157.531,282.902 157.292 C 283.449 157.053,284.489 156.747,285.214 156.613 C 285.939 156.480,286.957 156.165,287.478 155.916 C 287.998 155.666,288.936 155.348,289.563 155.209 C 290.190 155.070,290.992 154.751,291.344 154.500 C 291.697 154.249,292.237 154.043,292.544 154.043 C 292.851 154.043,293.575 153.743,294.153 153.377 C 294.730 153.011,295.582 152.586,296.045 152.433 C 296.508 152.280,296.920 152.070,296.960 151.965 C 297.000 151.861,297.557 151.496,298.197 151.155 C 301.645 149.316,305.705 145.050,306.357 142.582 C 306.521 141.960,306.758 141.326,306.884 141.174 C 307.973 139.851,307.541 137.000,306.139 136.263 C 304.319 135.308,302.642 136.854,302.123 139.965 C 301.865 141.516,298.528 145.666,297.540 145.666 C 297.365 145.666,297.022 145.886,296.779 146.155 C 296.535 146.424,296.027 146.804,295.649 147.000 C 295.271 147.195,294.821 147.496,294.649 147.668 C 294.477 147.840,293.934 148.089,293.443 148.221 C 292.952 148.354,292.420 148.618,292.262 148.809 C 290.924 150.421,290.674 147.028,291.935 144.364 C 292.243 143.712,292.496 143.031,292.496 142.851 C 292.496 142.671,292.769 141.477,293.103 140.197 C 293.437 138.918,293.848 136.894,294.016 135.700 C 294.184 134.505,294.485 133.121,294.684 132.623 C 295.102 131.577,295.465 127.320,295.710 120.593 C 295.904 115.236,296.284 114.144,297.644 115.029 C 297.948 115.226,298.979 115.565,299.935 115.781 C 300.891 115.998,302.118 116.365,302.660 116.597 C 303.202 116.830,304.043 117.091,304.528 117.177 C 305.013 117.263,305.730 117.527,306.122 117.762 C 306.513 117.998,307.409 118.341,308.113 118.524 C 308.817 118.708,309.804 119.078,310.307 119.347 C 310.809 119.617,311.422 119.837,311.669 119.837 C 311.916 119.837,312.545 120.085,313.069 120.387 C 313.592 120.690,314.439 121.071,314.951 121.234 C 315.462 121.397,316.143 121.714,316.463 121.937 C 316.783 122.161,317.450 122.456,317.945 122.592 C 318.440 122.728,319.016 122.994,319.225 123.182 C 319.434 123.371,320.509 123.990,321.616 124.559 C 322.722 125.128,323.988 125.869,324.430 126.205 C 324.872 126.542,325.299 126.818,325.380 126.818 C 325.929 126.818,331.807 132.166,331.818 132.676 C 331.819 132.762,332.069 133.128,332.373 133.490 C 333.276 134.567,334.431 137.719,334.319 138.802 C 334.197 139.982,332.926 143.431,332.429 143.927 C 332.223 144.134,332.054 144.382,332.054 144.478 C 332.054 144.832,327.764 148.987,326.633 149.728 C 325.883 150.220,324.638 150.019,323.759 149.263 C 323.411 148.964,322.334 148.321,321.366 147.833 L 319.604 146.946 315.765 146.960 L 311.926 146.974 310.258 147.891 C 307.071 149.642,306.174 150.416,304.471 152.880 C 303.547 154.216,302.269 157.841,302.269 159.125 C 302.269 160.878,301.486 161.495,298.683 161.951 C 297.952 162.070,297.020 162.335,296.612 162.540 C 296.204 162.745,295.120 163.056,294.203 163.233 C 293.286 163.409,292.134 163.758,291.643 164.009 C 291.151 164.260,290.017 164.542,289.121 164.636 C 288.225 164.730,287.003 164.998,286.405 165.232 C 285.807 165.466,284.760 165.726,284.078 165.809 C 283.397 165.893,281.896 166.223,280.745 166.542 C 279.593 166.862,277.943 167.214,277.078 167.325 C 276.213 167.436,274.799 167.737,273.937 167.993 C 273.074 168.250,271.321 168.566,270.041 168.697 C 268.761 168.827,267.086 169.099,266.318 169.300 C 265.550 169.501,263.665 169.811,262.129 169.988 C 260.593 170.165,258.866 170.464,258.290 170.653 C 257.714 170.843,256.405 171.061,255.381 171.139 C 251.630 171.425,248.812 171.763,246.539 172.198 C 245.259 172.443,243.210 172.708,241.985 172.786 C 239.566 172.941,238.477 173.531,238.141 174.869 C 237.689 176.671,240.131 178.300,242.139 177.537 C 242.487 177.404,244.441 177.191,246.481 177.062 C 248.521 176.933,251.044 176.628,252.088 176.384 C 253.131 176.140,255.228 175.827,256.748 175.689 C 258.268 175.552,260.310 175.235,261.286 174.987 C 262.262 174.738,264.266 174.433,265.741 174.309 C 267.215 174.185,268.714 173.972,269.072 173.836 C 270.698 173.218,271.293 174.346,270.029 175.652 C 269.703 175.989,268.725 177.103,267.855 178.127 C 265.885 180.448,264.603 181.751,261.672 184.410 C 260.402 185.561,259.105 186.751,258.789 187.054 C 258.055 187.758,255.384 188.673,253.269 188.946 C 252.363 189.063,250.845 189.412,249.895 189.721 C 248.945 190.031,247.487 190.359,246.655 190.450 C 245.823 190.541,244.357 190.807,243.397 191.041 C 242.437 191.275,240.500 191.592,239.092 191.745 C 237.685 191.899,235.590 192.226,234.439 192.473 C 233.287 192.721,230.931 193.018,229.203 193.135 C 225.414 193.390,222.013 193.763,220.593 194.079 C 217.066 194.864,178.702 194.851,175.102 194.064 C 173.490 193.711,170.611 193.405,166.448 193.143 C 164.504 193.020,162.096 192.721,161.096 192.477 C 160.097 192.233,158.127 191.906,156.719 191.751 C 155.311 191.595,153.374 191.276,152.414 191.042 C 151.454 190.807,149.988 190.546,149.156 190.461 C 148.325 190.376,146.911 190.061,146.015 189.760 C 145.119 189.460,143.598 189.106,142.634 188.974 C 141.670 188.841,140.518 188.584,140.074 188.401 C 139.630 188.218,138.796 187.992,138.220 187.900 C 137.644 187.807,137.050 187.664,136.900 187.583 C 136.108 187.153,128.372 179.630,127.951 178.879 C 127.862 178.721,127.037 177.807,126.118 176.847 C 125.199 175.887,124.185 174.657,123.865 174.113 C 123.545 173.569,123.198 173.124,123.093 173.124 C 122.796 173.124,121.438 170.798,121.590 170.551 C 121.813 170.191,124.447 170.301,126.934 170.775 C 130.056 171.369,132.946 171.728,134.613 171.728 C 136.050 171.728,139.069 172.053,141.245 172.442 C 141.949 172.568,144.619 172.774,147.179 172.899 C 149.738 173.024,152.984 173.235,154.392 173.367 C 162.385 174.118,164.965 174.251,172.969 174.324 L 181.773 174.404 182.219 173.854 C 182.755 173.193,182.806 171.746,182.326 170.818 C 181.903 169.999,181.227 169.872,177.279 169.869 C 175.661 169.867,173.305 169.762,172.043 169.634 C 169.473 169.374,163.745 169.058,155.090 168.699 C 149.614 168.472,148.591 168.382,144.678 167.782 C 143.815 167.650,141.197 167.442,138.861 167.320 C 136.525 167.199,132.990 166.844,131.006 166.532 C 129.023 166.220,126.353 165.902,125.073 165.824 C 123.793 165.746,122.118 165.514,121.350 165.308 C 120.582 165.101,118.487 164.800,116.696 164.638 C 114.904 164.476,112.600 164.128,111.576 163.866 C 110.553 163.604,108.500 163.276,107.014 163.136 C 105.529 162.997,104.010 162.734,103.640 162.551 C 103.270 162.369,102.011 162.114,100.842 161.986 C 99.674 161.857,97.737 161.491,96.537 161.174 C 95.338 160.856,93.624 160.524,92.728 160.436 C 91.832 160.349,90.830 160.138,90.501 159.968 C 90.172 159.798,89.020 159.485,87.941 159.273 C 86.863 159.061,85.163 158.635,84.165 158.327 C 83.166 158.019,81.983 157.766,81.534 157.766 C 81.086 157.766,80.227 157.542,79.627 157.268 C 79.026 156.994,77.801 156.618,76.905 156.432 C 76.009 156.247,74.844 155.898,74.316 155.658 C 73.788 155.418,72.898 155.151,72.338 155.065 C 71.779 154.979,71.055 154.776,70.731 154.612 C 69.255 153.870,68.543 153.937,67.512 154.918 C 65.584 156.752,66.736 158.708,70.222 159.518 C 71.462 159.807,72.393 160.095,75.974 161.299 C 76.742 161.557,78.104 161.917,78.999 162.098 C 79.895 162.279,80.942 162.574,81.326 162.753 C 81.710 162.933,82.443 163.147,82.955 163.229 C 84.763 163.520,86.220 163.882,86.839 164.195 C 87.184 164.370,88.231 164.619,89.166 164.750 C 90.101 164.881,91.495 165.193,92.263 165.444 C 93.031 165.695,94.602 166.007,95.753 166.138 C 96.905 166.268,98.528 166.584,99.360 166.840 C 100.192 167.096,102.072 167.418,103.538 167.556 C 105.005 167.694,106.367 167.894,106.565 168.000 C 107.133 168.304,111.101 168.935,112.449 168.936 C 113.949 168.937,115.081 169.564,115.532 170.643 C 115.844 171.391,117.135 173.471,117.865 174.404 C 118.065 174.660,118.754 175.550,119.395 176.382 C 120.037 177.213,121.288 178.748,122.177 179.792 C 123.066 180.835,123.793 181.735,123.793 181.791 C 123.793 182.152,133.545 191.560,134.464 192.086 C 135.031 192.410,136.463 193.499,137.987 194.766 C 138.691 195.350,139.895 196.240,140.663 196.742 C 141.431 197.245,142.321 197.882,142.641 198.159 C 142.961 198.435,143.497 198.805,143.831 198.982 C 146.022 200.135,146.778 200.589,147.047 200.913 C 147.215 201.115,147.484 201.280,147.646 201.280 C 147.808 201.280,148.474 201.646,149.125 202.094 C 149.776 202.542,150.454 202.909,150.631 202.909 C 150.808 202.909,151.360 203.185,151.858 203.523 C 152.356 203.860,153.077 204.244,153.461 204.374 C 153.845 204.505,154.409 204.805,154.714 205.040 C 155.020 205.276,155.397 205.468,155.554 205.468 C 155.711 205.468,156.404 205.769,157.093 206.136 C 157.783 206.504,158.705 206.882,159.142 206.978 C 159.579 207.073,160.406 207.401,160.980 207.706 C 161.554 208.011,162.154 208.261,162.314 208.261 C 162.473 208.261,163.322 208.562,164.199 208.930 C 165.076 209.298,166.202 209.672,166.701 209.761 C 167.199 209.850,167.837 210.074,168.117 210.258 C 168.398 210.441,169.587 210.801,170.760 211.057 C 171.933 211.313,173.285 211.674,173.764 211.860 C 174.244 212.045,175.448 212.305,176.440 212.437 C 177.433 212.569,178.846 212.876,179.582 213.119 C 180.317 213.362,182.019 213.632,183.362 213.719 C 184.706 213.806,187.219 214.080,188.947 214.326 C 193.003 214.906,202.469 214.964,205.538 214.429 C 206.634 214.237,208.821 213.976,210.397 213.847 C 213.881 213.562,214.625 213.449,215.823 213.025 C 216.335 212.843,217.542 212.591,218.506 212.465 C 219.470 212.339,220.652 212.071,221.132 211.870 C 221.612 211.670,222.858 211.344,223.901 211.146 C 224.945 210.948,226.175 210.594,226.635 210.359 C 227.096 210.124,228.066 209.822,228.791 209.688 C 229.516 209.554,230.635 209.178,231.277 208.853 C 231.920 208.527,232.590 208.261,232.767 208.261 C 232.945 208.261,233.582 207.999,234.184 207.679 C 234.785 207.359,235.455 207.097,235.673 207.097 C 235.890 207.097,236.696 206.788,237.464 206.409 C 238.232 206.031,239.331 205.507,239.907 205.245 C 240.483 204.983,241.582 204.411,242.350 203.973 C 243.118 203.535,243.903 203.109,244.095 203.026 C 245.589 202.379,247.916 201.069,248.168 200.733 C 248.296 200.562,248.786 200.295,249.258 200.140 C 249.729 199.985,250.148 199.776,250.189 199.676 C 250.229 199.576,251.047 198.982,252.007 198.356 C 252.967 197.731,254.548 196.614,255.520 195.875 C 256.492 195.136,257.366 194.532,257.462 194.532 C 257.558 194.532,258.292 193.956,259.094 193.252 C 259.896 192.548,260.624 191.972,260.713 191.972 C 260.882 191.972,271.235 181.578,272.833 179.804 C 275.336 177.025,276.161 175.828,277.873 172.488 C 278.048 172.147,278.427 171.925,278.977 171.841 C 280.830 171.561,282.444 171.210,283.770 170.800 C 284.538 170.562,285.794 170.299,286.562 170.216 C 287.330 170.132,288.796 169.821,289.820 169.525 C 290.844 169.229,292.257 168.856,292.961 168.697 C 293.665 168.538,294.538 168.258,294.900 168.074 C 295.263 167.890,296.193 167.638,296.967 167.513 C 297.742 167.388,298.658 167.140,299.003 166.962 C 301.547 165.646,303.789 165.859,304.546 167.486 C 304.941 168.334,306.113 169.657,307.068 170.332 C 309.557 172.090,310.901 172.893,311.370 172.900 C 311.676 172.904,312.554 173.059,313.322 173.245 C 315.928 173.874,319.838 173.323,322.381 171.969 C 324.123 171.040,327.865 167.294,327.865 166.478 C 327.865 166.300,328.192 165.445,328.592 164.578 C 329.587 162.419,329.686 158.831,328.821 156.188 C 328.517 155.256,328.308 154.461,328.357 154.422 C 328.406 154.382,329.127 153.833,329.959 153.201 C 332.982 150.905,333.710 150.200,335.660 147.680 C 337.245 145.633,337.125 145.820,338.138 143.805 C 338.895 142.297,338.898 142.280,338.898 138.802 L 338.897 135.311 338.028 133.508 C 336.590 130.524,335.870 129.544,333.148 126.863 C 331.293 125.036,330.337 124.258,329.378 123.791 C 328.994 123.605,328.151 123.011,327.505 122.471 C 326.859 121.931,325.864 121.270,325.294 121.002 C 324.304 120.536,322.791 119.756,322.048 119.328 C 321.856 119.218,321.123 118.851,320.419 118.514 C 319.715 118.177,318.889 117.708,318.584 117.473 C 318.279 117.237,317.818 117.045,317.561 117.045 C 317.303 117.045,316.401 116.718,315.556 116.319 C 314.711 115.920,313.496 115.347,312.856 115.045 C 312.216 114.742,311.222 114.381,310.646 114.240 C 310.070 114.100,309.081 113.732,308.448 113.421 C 307.815 113.110,307.025 112.856,306.693 112.856 C 306.362 112.856,305.675 112.643,305.168 112.382 C 304.661 112.122,303.566 111.738,302.734 111.530 C 301.902 111.321,300.760 110.955,300.196 110.716 C 299.632 110.477,298.542 110.216,297.774 110.136 C 295.752 109.925,295.613 109.713,295.414 106.540 C 295.323 105.081,295.099 103.104,294.917 102.147 C 294.734 101.190,294.388 99.203,294.147 97.731 C 293.906 96.259,293.550 94.623,293.355 94.094 C 293.160 93.565,292.838 92.269,292.639 91.214 C 292.440 90.158,292.113 89.044,291.912 88.737 C 291.711 88.431,291.441 87.605,291.311 86.902 C 291.181 86.199,290.819 85.075,290.508 84.406 C 290.196 83.736,289.939 82.978,289.937 82.723 C 289.936 82.467,289.732 81.925,289.484 81.519 C 289.237 81.113,288.883 80.275,288.698 79.657 C 288.513 79.040,288.088 78.021,287.753 77.394 C 287.418 76.767,287.144 76.075,287.144 75.856 C 287.144 75.637,286.895 75.091,286.590 74.642 C 286.286 74.194,285.914 73.455,285.764 73.000 C 285.614 72.545,285.340 72.047,285.155 71.893 C 284.970 71.740,284.696 71.182,284.546 70.653 C 284.396 70.124,284.046 69.430,283.768 69.110 C 283.490 68.790,283.131 68.195,282.971 67.789 C 282.811 67.382,282.480 66.868,282.236 66.647 C 281.992 66.426,281.792 66.147,281.792 66.026 C 281.792 65.703,280.212 63.172,278.941 61.458 C 278.333 60.639,277.836 59.888,277.836 59.791 C 277.836 59.693,277.473 59.159,277.029 58.603 C 276.585 58.047,275.616 56.830,274.876 55.900 C 271.387 51.512,266.906 46.753,263.214 43.514 C 262.412 42.810,261.578 42.073,261.361 41.876 C 261.143 41.679,260.547 41.210,260.035 40.833 C 259.113 40.154,258.687 39.805,257.274 38.573 C 255.475 37.004,252.963 38.352,253.245 40.735 C 253.442 42.402,252.384 43.100,249.215 43.389 C 248.255 43.477,246.475 43.800,245.259 44.107 C 244.043 44.414,241.949 44.779,240.605 44.918 C 239.261 45.057,237.738 45.314,237.220 45.487 C 236.702 45.661,235.498 45.872,234.544 45.955 C 231.888 46.188,225.643 47.019,225.395 47.173 C 225.273 47.248,223.865 47.387,222.266 47.483 C 219.121 47.670,219.030 47.713,218.702 49.162 C 218.336 50.779,220.483 51.031,227.807 50.230 C 229.023 50.097,230.587 49.841,231.282 49.661 C 231.978 49.481,233.706 49.270,235.122 49.191 C 236.574 49.111,238.684 48.804,239.962 48.488 C 241.208 48.180,242.883 47.868,243.685 47.794 C 244.487 47.720,246.190 47.418,247.469 47.121 C 248.749 46.825,250.559 46.468,251.491 46.328 C 252.423 46.187,253.780 45.863,254.508 45.607 C 257.340 44.612,257.571 44.744,263.642 50.802 C 268.014 55.165,268.108 55.364,266.009 55.785 C 265.219 55.943,264.186 56.234,263.714 56.431 C 263.243 56.629,261.825 56.945,260.565 57.134 C 259.304 57.323,257.520 57.687,256.599 57.942 C 255.678 58.197,254.420 58.406,253.803 58.406 C 252.805 58.406,249.462 58.961,246.727 59.581 C 246.190 59.703,245.247 59.803,244.632 59.804 C 244.017 59.804,242.938 59.904,242.234 60.026 C 241.530 60.148,240.064 60.405,238.976 60.597 C 237.888 60.790,234.642 61.113,231.763 61.316 C 228.883 61.519,226.056 61.778,225.480 61.892 C 223.015 62.380,198.576 63.172,194.183 62.907 C 193.415 62.860,188.127 62.722,182.432 62.599 C 174.568 62.430,171.265 62.268,168.703 61.927 C 166.847 61.680,163.496 61.355,161.257 61.204 C 159.017 61.053,156.137 60.722,154.857 60.469 C 153.578 60.216,151.326 59.914,149.855 59.799 C 148.383 59.684,146.261 59.371,145.141 59.105 C 144.020 58.838,142.012 58.525,140.679 58.407 C 139.346 58.290,137.876 58.036,137.412 57.842 C 136.948 57.648,135.657 57.370,134.544 57.224 C 133.430 57.078,131.748 56.708,130.805 56.403 C 129.863 56.097,128.921 55.843,128.711 55.839 C 127.156 55.809,127.430 54.593,129.431 52.646 C 130.105 51.990,131.149 50.949,131.751 50.334 C 133.840 48.195,137.476 44.910,137.754 44.910 C 137.843 44.910,138.289 44.570,138.745 44.154 C 139.201 43.738,139.856 43.188,140.202 42.932 C 140.548 42.676,141.159 42.195,141.561 41.864 C 141.963 41.533,143.045 40.774,143.964 40.179 C 144.884 39.583,145.703 38.988,145.784 38.857 C 145.915 38.646,146.403 38.358,148.897 37.021 C 149.232 36.842,149.793 36.456,150.144 36.164 C 150.495 35.873,151.019 35.560,151.308 35.470 C 151.596 35.380,152.128 35.058,152.490 34.756 C 152.852 34.453,153.274 34.206,153.429 34.206 C 153.583 34.206,154.959 33.578,156.486 32.810 C 158.014 32.042,159.435 31.414,159.646 31.414 C 159.856 31.414,160.388 31.170,160.827 30.872 C 161.266 30.574,162.144 30.199,162.779 30.040 C 163.413 29.880,164.097 29.601,164.298 29.420 C 164.499 29.239,165.214 28.986,165.888 28.858 C 166.562 28.730,167.607 28.378,168.210 28.075 C 168.812 27.773,169.808 27.450,170.422 27.358 C 171.036 27.266,172.006 26.989,172.579 26.744 C 173.151 26.499,174.738 26.076,176.106 25.806 C 177.473 25.535,178.771 25.218,178.990 25.103 C 179.209 24.987,180.518 24.781,181.899 24.646 C 183.280 24.511,184.985 24.256,185.689 24.079 C 190.166 22.956,204.271 22.984,209.424 24.126 C 213.872 25.112,216.405 24.430,216.405 22.244 C 216.405 19.321,205.691 17.998,189.180 18.883 M202.443 48.876 C 201.099 48.967,197.110 49.054,193.577 49.070 C 186.468 49.101,185.819 49.202,185.337 50.348 C 184.375 52.635,186.813 52.977,198.837 52.238 C 201.908 52.050,206.044 51.891,208.028 51.885 C 212.002 51.874,212.436 51.738,212.772 50.400 C 213.214 48.640,210.929 48.303,202.443 48.876 M128.268 59.334 C 128.943 59.586,130.280 59.887,131.240 60.002 C 132.199 60.116,133.806 60.431,134.810 60.701 C 135.815 60.970,137.542 61.301,138.650 61.435 C 139.757 61.569,141.134 61.830,141.710 62.015 C 142.286 62.200,144.171 62.507,145.899 62.697 C 147.627 62.887,150.192 63.250,151.600 63.503 C 153.008 63.756,155.992 64.081,158.232 64.227 C 160.471 64.372,162.670 64.580,163.118 64.688 C 164.415 65.001,165.967 65.146,170.564 65.383 C 172.932 65.505,176.597 65.708,178.709 65.835 C 192.161 66.642,199.178 66.642,215.590 65.831 C 218.278 65.698,222.519 65.492,225.015 65.372 C 227.510 65.252,230.128 65.045,230.832 64.911 C 231.536 64.777,233.264 64.563,234.671 64.435 C 239.129 64.031,243.462 63.507,245.026 63.183 C 245.858 63.011,247.734 62.745,249.195 62.592 C 250.655 62.439,252.237 62.178,252.710 62.011 C 253.182 61.844,254.291 61.639,255.173 61.555 C 256.055 61.471,258.034 61.104,259.570 60.739 C 261.105 60.375,262.998 60.012,263.776 59.932 C 264.553 59.853,265.758 59.567,266.452 59.298 C 268.574 58.473,270.732 58.562,271.513 59.508 C 273.021 61.333,273.415 61.856,273.415 62.037 C 273.415 62.142,273.626 62.442,273.883 62.703 C 274.141 62.963,274.783 63.857,275.309 64.689 C 275.836 65.521,276.463 66.485,276.702 66.832 C 277.869 68.520,277.344 69.092,274.390 69.353 C 273.150 69.462,271.481 69.762,270.681 70.019 C 269.881 70.276,268.415 70.552,267.423 70.632 C 266.431 70.712,264.363 71.030,262.827 71.338 C 261.291 71.646,258.621 72.006,256.894 72.136 C 255.166 72.267,253.019 72.531,252.123 72.722 C 251.227 72.913,249.133 73.169,247.469 73.291 C 243.704 73.565,240.416 73.925,237.696 74.358 C 236.545 74.542,234.555 74.693,233.275 74.694 C 229.846 74.696,222.231 75.149,221.291 75.406 C 218.615 76.139,175.435 76.126,172.542 75.392 C 172.030 75.261,168.784 75.047,165.329 74.914 C 161.873 74.781,157.475 74.471,155.556 74.223 C 153.636 73.976,150.128 73.610,147.760 73.410 C 145.393 73.210,142.684 72.890,141.741 72.700 C 140.799 72.509,138.655 72.248,136.978 72.120 C 135.300 71.993,133.349 71.748,132.642 71.576 C 130.579 71.076,128.935 70.783,126.789 70.535 C 125.685 70.407,124.272 70.142,123.648 69.946 C 123.024 69.750,121.484 69.495,120.227 69.379 C 118.970 69.263,117.844 69.071,117.724 68.952 C 117.478 68.706,118.632 66.290,119.372 65.502 C 119.628 65.230,119.837 64.910,119.837 64.790 C 119.838 64.670,120.099 64.268,120.419 63.896 C 120.739 63.524,121.001 63.142,121.001 63.046 C 121.001 62.841,122.198 61.318,123.611 59.726 L 124.607 58.603 125.824 58.739 C 126.493 58.813,127.593 59.081,128.268 59.334 M84.119 60.520 C 81.128 61.527,79.511 62.876,78.218 65.445 C 77.211 67.445,77.160 71.729,78.128 73.038 C 78.415 73.427,78.650 73.867,78.650 74.017 C 78.650 74.167,79.396 75.000,80.306 75.868 C 82.379 77.845,85.185 78.729,87.681 78.191 C 88.409 78.035,89.396 77.826,89.873 77.729 C 90.763 77.547,92.970 75.852,93.725 74.772 C 93.945 74.457,94.386 73.873,94.706 73.472 C 95.544 72.424,95.609 66.241,94.792 65.348 C 94.519 65.049,94.129 64.476,93.925 64.073 C 92.511 61.272,87.393 59.418,84.119 60.520 M88.256 65.471 C 91.862 66.997,91.262 72.579,87.414 73.323 C 85.551 73.683,83.267 72.647,82.926 71.286 C 82.853 70.995,82.646 70.636,82.467 70.487 C 81.440 69.635,82.794 66.392,84.535 65.533 C 85.458 65.078,87.257 65.048,88.256 65.471 M120.307 72.837 C 121.014 73.061,122.584 73.370,123.798 73.522 C 125.011 73.674,127.155 74.049,128.563 74.355 C 129.971 74.661,132.327 74.976,133.799 75.056 C 135.271 75.135,136.998 75.341,137.638 75.514 C 138.749 75.813,140.222 75.988,146.481 76.563 C 148.016 76.704,149.849 76.977,150.553 77.169 C 151.401 77.401,153.754 77.585,157.533 77.714 C 160.669 77.822,164.543 78.070,166.143 78.266 C 172.449 79.038,175.934 79.136,196.962 79.137 C 217.970 79.138,221.419 79.041,227.807 78.271 C 229.407 78.078,233.229 77.830,236.300 77.720 C 240.320 77.575,242.504 77.389,244.095 77.056 C 245.311 76.802,247.196 76.530,248.284 76.452 C 252.171 76.173,255.167 75.823,256.312 75.514 C 256.952 75.341,258.679 75.131,260.151 75.046 C 261.623 74.962,263.717 74.683,264.805 74.427 C 265.893 74.171,267.621 73.872,268.645 73.764 C 271.267 73.485,273.468 73.079,273.786 72.815 C 274.684 72.069,279.820 72.033,280.095 72.770 C 280.180 72.996,280.532 73.653,280.878 74.229 C 281.224 74.805,281.585 75.538,281.680 75.858 C 281.775 76.178,282.036 76.702,282.260 77.022 C 282.484 77.341,282.844 78.127,283.061 78.767 C 283.277 79.407,283.594 80.087,283.765 80.279 C 283.936 80.471,284.198 81.090,284.349 81.654 C 284.499 82.219,284.772 82.910,284.956 83.190 C 285.139 83.469,285.449 84.317,285.644 85.072 C 285.840 85.828,286.192 86.817,286.427 87.271 C 286.662 87.725,286.927 88.562,287.017 89.132 C 287.107 89.702,287.381 90.721,287.626 91.396 C 287.871 92.070,288.188 93.379,288.331 94.304 C 288.473 95.229,288.792 96.510,289.038 97.150 C 289.294 97.814,289.589 99.460,289.725 100.989 C 289.856 102.461,290.163 104.694,290.406 105.951 C 291.103 109.555,290.901 109.938,288.167 110.195 C 287.284 110.278,285.774 110.540,284.810 110.778 C 283.847 111.016,281.648 111.374,279.924 111.573 C 278.200 111.772,276.265 112.085,275.625 112.268 C 274.985 112.452,272.787 112.717,270.739 112.857 C 268.691 112.997,265.759 113.309,264.223 113.549 C 262.688 113.789,259.599 114.107,257.359 114.256 C 255.119 114.405,252.816 114.623,252.240 114.742 C 249.840 115.236,248.289 115.390,244.378 115.522 C 238.759 115.711,233.199 116.080,229.436 116.514 C 222.662 117.295,172.347 117.171,165.445 116.356 C 163.211 116.093,158.372 115.778,151.018 115.418 C 148.266 115.284,145.346 115.026,144.529 114.845 C 143.711 114.664,141.251 114.401,139.061 114.260 C 136.870 114.120,133.763 113.799,132.156 113.547 C 130.549 113.295,127.617 112.981,125.641 112.848 C 123.665 112.715,121.524 112.451,120.884 112.261 C 120.244 112.071,118.277 111.756,116.512 111.561 C 114.748 111.367,112.496 111.009,111.509 110.767 C 110.522 110.526,108.744 110.255,107.558 110.165 C 105.547 110.014,105.361 109.957,104.823 109.318 C 104.142 108.508,104.164 108.792,104.596 106.341 C 104.787 105.253,104.944 103.938,104.944 103.419 C 104.945 101.537,106.945 101.374,111.531 102.885 C 112.273 103.129,113.735 103.444,114.779 103.585 C 115.823 103.725,117.258 104.041,117.966 104.286 C 118.675 104.531,120.093 104.792,121.117 104.867 C 122.141 104.941,124.235 105.292,125.771 105.646 C 127.307 106.001,129.500 106.366,130.644 106.457 C 131.789 106.548,133.202 106.772,133.785 106.953 C 134.369 107.135,136.417 107.389,138.336 107.517 C 140.256 107.646,142.717 107.905,143.805 108.093 C 148.829 108.962,157.126 109.356,158.243 108.778 C 160.307 107.711,158.473 105.891,155.323 105.880 C 154.427 105.876,152.752 105.724,151.600 105.540 C 150.448 105.357,147.830 105.088,145.782 104.943 C 142.329 104.698,139.260 104.329,136.126 103.781 C 135.422 103.658,133.620 103.451,132.122 103.321 C 130.624 103.191,128.948 102.933,128.399 102.747 C 127.849 102.561,126.038 102.239,124.375 102.031 C 122.711 101.822,120.669 101.460,119.837 101.225 C 119.005 100.991,117.707 100.727,116.952 100.640 C 116.197 100.553,114.806 100.229,113.861 99.921 C 112.917 99.612,111.814 99.360,111.411 99.360 C 110.343 99.360,106.995 98.428,106.490 97.990 C 105.944 97.516,106.093 95.883,106.903 93.449 C 107.205 92.541,107.525 91.326,107.615 90.750 C 107.704 90.175,107.980 89.302,108.229 88.811 C 108.478 88.320,108.796 87.377,108.936 86.716 C 109.076 86.055,109.440 85.044,109.744 84.470 C 110.048 83.895,110.297 83.277,110.297 83.096 C 110.297 82.915,110.607 82.111,110.986 81.309 C 111.365 80.507,111.747 79.555,111.836 79.193 C 111.925 78.830,112.243 78.169,112.543 77.724 C 112.844 77.278,113.089 76.747,113.089 76.544 C 113.089 76.340,113.400 75.762,113.781 75.260 C 114.161 74.757,114.475 74.130,114.479 73.866 C 114.501 72.247,117.036 71.799,120.307 72.837 M264.805 81.642 C 263.072 82.016,260.173 84.231,259.775 85.484 C 259.690 85.752,259.400 86.270,259.130 86.634 C 258.201 87.888,258.274 92.233,259.255 94.201 C 262.621 100.949,270.969 101.329,275.425 94.937 L 276.315 93.659 276.319 90.518 C 276.324 86.702,275.109 84.150,272.645 82.801 C 272.333 82.630,271.729 82.293,271.303 82.052 C 270.449 81.570,266.339 81.310,264.805 81.642 M269.789 86.853 C 270.360 87.269,270.833 87.698,270.841 87.806 C 270.849 87.914,271.082 88.321,271.359 88.711 C 272.869 90.831,270.518 94.475,267.614 94.515 C 265.327 94.547,262.906 92.193,263.141 90.169 C 263.228 89.422,264.369 87.260,264.676 87.260 C 264.830 87.260,265.203 86.998,265.503 86.678 C 266.370 85.756,268.398 85.838,269.789 86.853 M99.163 117.510 C 99.314 124.815,99.563 128.208,100.039 129.450 C 100.177 129.810,100.402 131.380,100.539 132.940 C 100.682 134.565,100.981 136.305,101.241 137.015 C 101.489 137.695,101.858 139.212,102.061 140.384 C 102.804 144.691,104.692 146.459,106.682 144.711 C 107.683 143.832,107.799 142.390,107.036 140.311 C 106.779 139.609,106.402 137.987,106.198 136.707 C 105.995 135.428,105.684 134.031,105.507 133.605 C 105.330 133.178,105.124 131.974,105.050 130.929 C 104.975 129.884,104.817 128.557,104.699 127.981 C 104.044 124.804,103.571 115.522,103.988 114.026 C 104.276 112.991,105.225 112.938,109.071 113.742 C 110.961 114.137,113.357 114.525,114.395 114.603 C 115.434 114.681,116.795 114.899,117.420 115.089 C 118.046 115.278,120.599 115.641,123.095 115.896 C 125.590 116.151,128.208 116.464,128.912 116.590 C 129.616 116.717,132.219 116.975,134.697 117.163 C 137.175 117.352,139.592 117.611,140.068 117.739 C 141.407 118.100,147.332 118.674,149.714 118.674 C 151.640 118.674,154.483 118.877,162.836 119.611 C 173.365 120.536,222.478 120.526,233.624 119.596 C 242.446 118.860,244.862 118.690,246.655 118.682 C 249.137 118.670,255.420 118.053,256.195 117.745 C 256.515 117.618,258.924 117.357,261.547 117.165 C 264.171 116.972,267.365 116.661,268.645 116.472 C 269.924 116.283,272.557 115.966,274.494 115.767 C 276.432 115.569,278.526 115.256,279.148 115.074 C 279.770 114.891,281.355 114.632,282.670 114.499 C 283.985 114.365,285.817 114.091,286.742 113.888 C 289.382 113.309,290.357 113.228,290.749 113.553 C 291.203 113.930,291.280 124.585,290.830 124.863 C 290.682 124.954,289.975 125.167,289.259 125.334 C 288.544 125.502,287.330 125.791,286.562 125.977 C 285.794 126.162,284.223 126.431,283.072 126.573 C 281.920 126.716,280.297 127.028,279.465 127.267 C 278.633 127.506,276.643 127.807,275.044 127.935 C 273.444 128.064,271.454 128.326,270.622 128.517 C 269.789 128.708,268.114 128.983,266.899 129.128 C 263.959 129.480,263.928 129.494,263.601 130.587 C 263.243 131.778,264.134 132.747,265.387 132.530 C 265.771 132.464,267.336 132.301,268.865 132.168 C 270.394 132.036,272.698 131.711,273.984 131.447 C 275.271 131.183,277.307 130.872,278.509 130.757 C 279.711 130.641,281.460 130.332,282.394 130.070 C 283.329 129.807,285.141 129.502,286.420 129.391 C 287.699 129.280,288.843 129.129,288.961 129.056 C 289.943 128.449,290.078 133.932,289.131 136.009 C 288.957 136.393,288.651 137.807,288.453 139.151 C 288.254 140.494,287.887 142.187,287.637 142.913 C 287.387 143.638,287.111 144.842,287.025 145.589 C 286.938 146.335,286.682 147.314,286.456 147.763 C 286.230 148.213,285.873 149.173,285.663 149.897 C 285.197 151.499,284.496 152.005,282.205 152.393 C 281.344 152.539,280.192 152.850,279.645 153.083 C 279.098 153.317,277.970 153.584,277.138 153.676 C 276.306 153.769,274.840 154.090,273.880 154.389 C 272.920 154.689,271.247 155.057,270.162 155.207 C 269.077 155.357,268.003 155.580,267.774 155.702 C 267.545 155.824,265.920 156.129,264.162 156.379 C 262.404 156.630,260.547 156.988,260.035 157.176 C 259.523 157.364,257.691 157.635,255.964 157.779 C 254.238 157.923,252.770 158.075,252.703 158.116 C 252.350 158.335,247.713 158.938,244.561 159.175 C 242.577 159.325,239.959 159.602,238.743 159.792 C 237.528 159.981,234.177 160.225,231.297 160.334 C 220.800 160.732,209.288 161.021,208.493 160.907 C 208.045 160.843,200.977 160.685,192.787 160.557 C 182.060 160.389,177.113 160.225,175.102 159.970 C 173.566 159.775,170.320 159.515,167.888 159.391 C 162.041 159.094,158.161 158.769,155.323 158.339 C 154.043 158.145,151.382 157.883,149.410 157.756 C 147.438 157.629,145.292 157.374,144.640 157.190 C 143.989 157.006,141.885 156.687,139.965 156.483 C 138.045 156.278,135.585 155.915,134.497 155.677 C 133.409 155.439,131.681 155.169,130.657 155.076 C 129.634 154.984,128.220 154.710,127.516 154.468 C 126.812 154.226,125.241 153.918,124.026 153.785 C 122.810 153.651,120.977 153.293,119.953 152.989 C 118.930 152.684,117.464 152.372,116.696 152.293 C 115.928 152.215,114.747 151.949,114.073 151.702 C 113.398 151.455,112.089 151.137,111.164 150.995 C 110.239 150.853,109.063 150.548,108.551 150.316 C 108.039 150.085,106.834 149.784,105.875 149.648 C 104.915 149.511,103.560 149.181,102.863 148.913 C 102.166 148.645,101.040 148.323,100.360 148.197 C 99.680 148.072,98.680 147.767,98.137 147.521 C 97.594 147.274,96.888 147.068,96.568 147.062 C 96.248 147.057,95.253 146.784,94.357 146.457 C 93.461 146.129,92.028 145.719,91.171 145.545 C 90.315 145.371,89.372 145.075,89.077 144.887 C 88.782 144.699,87.868 144.376,87.046 144.169 C 86.225 143.963,85.218 143.587,84.808 143.334 C 84.399 143.081,83.868 142.874,83.629 142.874 C 83.206 142.874,82.359 142.508,78.999 140.873 C 78.104 140.438,77.291 140.081,77.194 140.081 C 77.097 140.081,76.584 139.767,76.054 139.383 C 75.524 138.999,74.955 138.685,74.790 138.685 C 74.626 138.685,74.147 138.371,73.726 137.987 C 73.306 137.603,72.828 137.289,72.665 137.289 C 72.501 137.289,72.368 137.187,72.368 137.062 C 72.368 136.938,72.047 136.670,71.656 136.468 C 67.445 134.290,64.398 127.012,66.598 124.386 C 66.700 124.265,66.783 123.981,66.783 123.756 C 66.783 123.531,67.071 123.026,67.423 122.634 C 69.107 120.759,70.033 119.837,70.231 119.837 C 70.351 119.837,70.579 119.680,70.738 119.489 C 71.145 118.999,73.670 117.337,74.293 117.149 C 74.578 117.063,75.334 116.704,75.974 116.350 C 76.614 115.997,77.452 115.634,77.836 115.543 C 78.220 115.453,78.704 115.226,78.912 115.039 C 79.120 114.851,79.696 114.634,80.192 114.557 C 80.688 114.479,81.670 114.159,82.373 113.845 C 83.077 113.532,84.299 113.136,85.088 112.966 C 85.876 112.795,86.829 112.498,87.204 112.304 C 87.579 112.110,88.451 111.882,89.143 111.796 C 89.835 111.711,91.344 111.379,92.496 111.059 C 95.015 110.358,96.562 110.100,97.964 110.146 L 99.011 110.180 99.163 117.510 M110.430 125.555 C 108.740 127.245,111.226 128.912,116.136 129.380 C 117.367 129.497,118.782 129.696,119.280 129.821 C 119.778 129.947,120.605 130.158,121.117 130.292 C 121.629 130.425,123.155 130.635,124.509 130.758 C 125.862 130.881,128.009 131.192,129.279 131.450 C 132.957 132.198,135.331 132.330,135.896 131.818 C 136.818 130.984,136.344 129.288,135.120 129.045 C 134.841 128.989,133.618 128.730,132.403 128.468 C 131.187 128.206,128.935 127.922,127.400 127.837 C 125.828 127.750,124.046 127.505,123.323 127.277 C 122.616 127.054,121.046 126.747,119.832 126.594 C 118.619 126.441,116.998 126.164,116.230 125.977 C 113.407 125.291,112.951 125.209,111.884 125.199 C 111.193 125.193,110.662 125.323,110.430 125.555 M142.234 130.295 C 141.289 130.884,141.199 131.913,142.021 132.734 C 142.516 133.229,142.839 133.291,145.686 133.438 C 149.021 133.610,150.954 133.802,155.207 134.384 C 156.678 134.585,160.186 134.850,163.002 134.973 C 165.817 135.096,169.116 135.300,170.332 135.427 C 176.069 136.027,179.633 136.139,197.208 136.272 C 223.419 136.471,235.536 136.058,236.475 134.933 C 236.960 134.352,237.007 133.127,236.567 132.526 C 236.214 132.044,226.645 132.147,223.386 132.667 C 221.124 133.028,189.478 133.204,185.885 132.875 C 180.976 132.427,176.725 132.197,170.448 132.043 C 166.699 131.951,162.982 131.717,160.675 131.430 C 156.926 130.962,154.660 130.753,148.458 130.306 C 146.603 130.172,144.613 130.008,144.037 129.943 C 143.240 129.852,142.810 129.936,142.234 130.295 M319.299 152.221 C 320.504 152.728,321.416 153.457,322.946 155.136 C 323.248 155.468,323.798 156.708,324.169 157.893 L 324.842 160.046 324.378 161.524 C 324.124 162.337,323.914 163.151,323.912 163.334 C 323.907 163.894,322.297 166.043,321.391 166.698 C 318.822 168.557,318.828 168.555,316.311 168.657 C 314.057 168.749,312.275 168.466,312.275 168.015 C 312.275 167.912,311.942 167.691,311.535 167.522 C 310.685 167.170,309.017 165.709,309.017 165.316 C 309.017 165.171,308.805 164.860,308.546 164.626 C 305.547 161.911,307.957 153.764,312.158 152.419 C 312.670 152.255,313.236 152.004,313.416 151.860 C 314.312 151.145,317.156 151.320,319.299 152.221 M109.568 190.816 C 107.209 191.393,104.181 193.464,103.243 195.142 C 103.091 195.414,102.761 195.990,102.509 196.422 C 101.875 197.511,101.824 202.188,102.435 203.258 C 102.654 203.642,102.988 204.277,103.176 204.669 C 103.463 205.267,104.664 206.485,106.087 207.620 C 107.048 208.388,110.730 209.257,111.868 208.985 C 115.728 208.061,117.190 207.139,118.812 204.604 C 122.759 198.434,116.513 189.117,109.568 190.816 M150.257 194.061 C 150.995 194.302,152.615 194.611,153.856 194.747 C 155.096 194.884,156.697 195.149,157.413 195.335 C 158.128 195.522,160.569 195.844,162.836 196.051 C 165.103 196.258,168.059 196.622,169.405 196.859 C 170.783 197.102,173.730 197.357,176.153 197.444 C 178.518 197.528,181.082 197.692,181.850 197.807 C 186.760 198.542,206.753 198.532,213.845 197.790 C 215.061 197.663,218.150 197.455,220.710 197.329 C 223.269 197.202,226.149 196.950,227.109 196.769 C 228.069 196.587,230.790 196.262,233.157 196.045 C 235.523 195.829,237.893 195.504,238.422 195.325 C 238.952 195.145,240.471 194.891,241.798 194.761 C 243.126 194.631,244.631 194.375,245.143 194.192 C 246.653 193.651,248.328 193.435,249.215 193.667 L 250.029 193.880 248.924 194.443 C 248.316 194.753,247.818 195.114,247.818 195.246 C 247.818 195.378,247.459 195.636,247.020 195.820 C 246.581 196.003,246.149 196.271,246.059 196.416 C 245.970 196.560,245.361 196.936,244.706 197.251 C 244.050 197.567,242.781 198.233,241.885 198.732 C 240.989 199.231,239.910 199.796,239.486 199.988 C 239.063 200.180,238.435 200.534,238.090 200.776 C 237.746 201.018,237.082 201.285,236.615 201.370 C 236.148 201.455,235.516 201.721,235.210 201.962 C 234.905 202.202,234.187 202.523,233.616 202.675 C 233.045 202.827,232.420 203.092,232.228 203.263 C 232.036 203.433,231.131 203.780,230.217 204.034 C 229.303 204.287,228.308 204.656,228.006 204.853 C 227.705 205.051,226.987 205.284,226.411 205.371 C 225.835 205.459,224.744 205.787,223.987 206.100 C 223.230 206.414,221.974 206.772,221.195 206.897 C 220.416 207.022,219.465 207.281,219.081 207.473 C 218.697 207.665,217.493 207.929,216.405 208.059 C 215.317 208.189,213.170 208.546,211.635 208.851 C 205.429 210.086,189.961 210.075,183.697 208.832 C 182.153 208.526,179.985 208.173,178.879 208.047 C 177.774 207.921,176.576 207.669,176.218 207.487 C 175.860 207.304,174.706 206.982,173.653 206.771 C 172.600 206.560,171.291 206.197,170.744 205.964 C 170.197 205.731,169.310 205.472,168.773 205.387 C 168.235 205.303,167.450 205.033,167.028 204.787 C 166.605 204.542,165.631 204.162,164.863 203.943 C 164.095 203.724,163.261 203.402,163.008 203.227 C 162.756 203.052,162.372 202.909,162.155 202.909 C 161.938 202.909,161.097 202.559,160.287 202.131 C 159.476 201.703,158.528 201.283,158.179 201.197 C 157.831 201.111,157.162 200.781,156.693 200.462 C 156.223 200.144,155.687 199.884,155.501 199.884 C 155.314 199.884,154.870 199.676,154.513 199.421 C 154.156 199.167,153.407 198.745,152.848 198.483 C 152.290 198.220,151.309 197.696,150.669 197.318 C 150.029 196.940,149.008 196.366,148.400 196.042 C 147.792 195.719,147.295 195.346,147.295 195.214 C 147.295 195.082,146.936 194.823,146.496 194.640 C 143.771 193.501,147.010 193.002,150.257 194.061 M113.163 196.243 C 114.058 196.607,115.416 198.860,115.416 199.980 C 115.416 203.468,110.319 205.478,108.083 202.873 C 104.819 199.070,108.453 194.328,113.163 196.243 " stroke="none" fill="#0d0d0d" fill-rule="evenodd"></path><path id="path1" d="M0.000 116.347 L 0.000 232.693 200.000 232.693 L 400.000 232.693 400.000 116.347 L 400.000 0.000 200.000 0.000 L 0.000 0.000 0.000 116.347 M206.050 18.954 C 214.042 19.420,216.405 20.170,216.405 22.244 C 216.405 24.430,213.872 25.112,209.424 24.126 C 204.271 22.984,190.166 22.956,185.689 24.079 C 184.985 24.256,183.280 24.511,181.899 24.646 C 180.518 24.781,179.209 24.987,178.990 25.103 C 178.771 25.218,177.473 25.535,176.106 25.806 C 174.738 26.076,173.151 26.499,172.579 26.744 C 172.006 26.989,171.036 27.266,170.422 27.358 C 169.808 27.450,168.812 27.773,168.210 28.075 C 167.607 28.378,166.562 28.730,165.888 28.858 C 165.214 28.986,164.499 29.239,164.298 29.420 C 164.097 29.601,163.413 29.880,162.779 30.040 C 162.144 30.199,161.266 30.574,160.827 30.872 C 160.388 31.170,159.856 31.414,159.646 31.414 C 159.435 31.414,158.014 32.042,156.486 32.810 C 154.959 33.578,153.583 34.206,153.429 34.206 C 153.274 34.206,152.852 34.453,152.490 34.756 C 152.128 35.058,151.596 35.380,151.308 35.470 C 151.019 35.560,150.495 35.873,150.144 36.164 C 149.793 36.456,149.232 36.842,148.897 37.021 C 146.403 38.358,145.915 38.646,145.784 38.857 C 145.703 38.988,144.884 39.583,143.964 40.179 C 143.045 40.774,141.963 41.533,141.561 41.864 C 141.159 42.195,140.548 42.676,140.202 42.932 C 139.856 43.188,139.201 43.738,138.745 44.154 C 138.289 44.570,137.843 44.910,137.754 44.910 C 137.476 44.910,133.840 48.195,131.751 50.334 C 131.149 50.949,130.105 51.990,129.431 52.646 C 127.430 54.593,127.156 55.809,128.711 55.839 C 128.921 55.843,129.863 56.097,130.805 56.403 C 131.748 56.708,133.430 57.078,134.544 57.224 C 135.657 57.370,136.948 57.648,137.412 57.842 C 137.876 58.036,139.346 58.290,140.679 58.407 C 142.012 58.525,144.020 58.838,145.141 59.105 C 146.261 59.371,148.383 59.684,149.855 59.799 C 151.326 59.914,153.578 60.216,154.857 60.469 C 156.137 60.722,159.017 61.053,161.257 61.204 C 163.496 61.355,166.847 61.680,168.703 61.927 C 171.265 62.268,174.568 62.430,182.432 62.599 C 188.127 62.722,193.415 62.860,194.183 62.907 C 198.576 63.172,223.015 62.380,225.480 61.892 C 226.056 61.778,228.883 61.519,231.763 61.316 C 234.642 61.113,237.888 60.790,238.976 60.597 C 240.064 60.405,241.530 60.148,242.234 60.026 C 242.938 59.904,244.017 59.804,244.632 59.804 C 245.247 59.803,246.190 59.703,246.727 59.581 C 249.462 58.961,252.805 58.406,253.803 58.406 C 254.420 58.406,255.678 58.197,256.599 57.942 C 257.520 57.687,259.304 57.323,260.565 57.134 C 261.825 56.945,263.243 56.629,263.714 56.431 C 264.186 56.234,265.219 55.943,266.009 55.785 C 268.108 55.364,268.014 55.165,263.642 50.802 C 257.571 44.744,257.340 44.612,254.508 45.607 C 253.780 45.863,252.423 46.187,251.491 46.328 C 250.559 46.468,248.749 46.825,247.469 47.121 C 246.190 47.418,244.487 47.720,243.685 47.794 C 242.883 47.868,241.208 48.180,239.962 48.488 C 238.684 48.804,236.574 49.111,235.122 49.191 C 233.706 49.270,231.978 49.481,231.282 49.661 C 230.587 49.841,229.023 50.097,227.807 50.230 C 220.483 51.031,218.336 50.779,218.702 49.162 C 219.030 47.713,219.121 47.670,222.266 47.483 C 223.865 47.387,225.273 47.248,225.395 47.173 C 225.643 47.019,231.888 46.188,234.544 45.955 C 235.498 45.872,236.702 45.661,237.220 45.487 C 237.738 45.314,239.261 45.057,240.605 44.918 C 241.949 44.779,244.043 44.414,245.259 44.107 C 246.475 43.800,248.255 43.477,249.215 43.389 C 252.384 43.100,253.442 42.402,253.245 40.735 C 252.963 38.352,255.475 37.004,257.274 38.573 C 258.687 39.805,259.113 40.154,260.035 40.833 C 260.547 41.210,261.143 41.679,261.361 41.876 C 261.578 42.073,262.412 42.810,263.214 43.514 C 266.906 46.753,271.387 51.512,274.876 55.900 C 275.616 56.830,276.585 58.047,277.029 58.603 C 277.473 59.159,277.836 59.693,277.836 59.791 C 277.836 59.888,278.333 60.639,278.941 61.458 C 280.212 63.172,281.792 65.703,281.792 66.026 C 281.792 66.147,281.992 66.426,282.236 66.647 C 282.480 66.868,282.811 67.382,282.971 67.789 C 283.131 68.195,283.490 68.790,283.768 69.110 C 284.046 69.430,284.396 70.124,284.546 70.653 C 284.696 71.182,284.970 71.740,285.155 71.893 C 285.340 72.047,285.614 72.545,285.764 73.000 C 285.914 73.455,286.286 74.194,286.590 74.642 C 286.895 75.091,287.144 75.637,287.144 75.856 C 287.144 76.075,287.418 76.767,287.753 77.394 C 288.088 78.021,288.513 79.040,288.698 79.657 C 288.883 80.275,289.237 81.113,289.484 81.519 C 289.732 81.925,289.936 82.467,289.937 82.723 C 289.939 82.978,290.196 83.736,290.508 84.406 C 290.819 85.075,291.181 86.199,291.311 86.902 C 291.441 87.605,291.711 88.431,291.912 88.737 C 292.113 89.044,292.440 90.158,292.639 91.214 C 292.838 92.269,293.160 93.565,293.355 94.094 C 293.550 94.623,293.906 96.259,294.147 97.731 C 294.388 99.203,294.734 101.190,294.917 102.147 C 295.099 103.104,295.323 105.081,295.414 106.540 C 295.613 109.713,295.752 109.925,297.774 110.136 C 298.542 110.216,299.632 110.477,300.196 110.716 C 300.760 110.955,301.902 111.321,302.734 111.530 C 303.566 111.738,304.661 112.122,305.168 112.382 C 305.675 112.643,306.362 112.856,306.693 112.856 C 307.025 112.856,307.815 113.110,308.448 113.421 C 309.081 113.732,310.070 114.100,310.646 114.240 C 311.222 114.381,312.216 114.742,312.856 115.045 C 313.496 115.347,314.711 115.920,315.556 116.319 C 316.401 116.718,317.303 117.045,317.561 117.045 C 317.818 117.045,318.279 117.237,318.584 117.473 C 318.889 117.708,319.715 118.177,320.419 118.514 C 321.123 118.851,321.856 119.218,322.048 119.328 C 322.791 119.756,324.304 120.536,325.294 121.002 C 325.864 121.270,326.859 121.931,327.505 122.471 C 328.151 123.011,328.994 123.605,329.378 123.791 C 330.337 124.258,331.293 125.036,333.148 126.863 C 335.870 129.544,336.590 130.524,338.028 133.508 L 338.897 135.311 338.898 138.802 C 338.898 142.280,338.895 142.297,338.138 143.805 C 337.125 145.820,337.245 145.633,335.660 147.680 C 333.710 150.200,332.982 150.905,329.959 153.201 C 329.127 153.833,328.406 154.382,328.357 154.422 C 328.308 154.461,328.517 155.256,328.821 156.188 C 329.686 158.831,329.587 162.419,328.592 164.578 C 328.192 165.445,327.865 166.300,327.865 166.478 C 327.865 167.294,324.123 171.040,322.381 171.969 C 319.838 173.323,315.928 173.874,313.322 173.245 C 312.554 173.059,311.676 172.904,311.370 172.900 C 310.901 172.893,309.557 172.090,307.068 170.332 C 306.113 169.657,304.941 168.334,304.546 167.486 C 303.789 165.859,301.547 165.646,299.003 166.962 C 298.658 167.140,297.742 167.388,296.967 167.513 C 296.193 167.638,295.263 167.890,294.900 168.074 C 294.538 168.258,293.665 168.538,292.961 168.697 C 292.257 168.856,290.844 169.229,289.820 169.525 C 288.796 169.821,287.330 170.132,286.562 170.216 C 285.794 170.299,284.538 170.562,283.770 170.800 C 282.444 171.210,280.830 171.561,278.977 171.841 C 278.427 171.925,278.048 172.147,277.873 172.488 C 276.161 175.828,275.336 177.025,272.833 179.804 C 271.235 181.578,260.882 191.972,260.713 191.972 C 260.624 191.972,259.896 192.548,259.094 193.252 C 258.292 193.956,257.558 194.532,257.462 194.532 C 257.366 194.532,256.492 195.136,255.520 195.875 C 254.548 196.614,252.967 197.731,252.007 198.356 C 251.047 198.982,250.229 199.576,250.189 199.676 C 250.148 199.776,249.729 199.985,249.258 200.140 C 248.786 200.295,248.296 200.562,248.168 200.733 C 247.916 201.069,245.589 202.379,244.095 203.026 C 243.903 203.109,243.118 203.535,242.350 203.973 C 241.582 204.411,240.483 204.983,239.907 205.245 C 239.331 205.507,238.232 206.031,237.464 206.409 C 236.696 206.788,235.890 207.097,235.673 207.097 C 235.455 207.097,234.785 207.359,234.184 207.679 C 233.582 207.999,232.945 208.261,232.767 208.261 C 232.590 208.261,231.920 208.527,231.277 208.853 C 230.635 209.178,229.516 209.554,228.791 209.688 C 228.066 209.822,227.096 210.124,226.635 210.359 C 226.175 210.594,224.945 210.948,223.901 211.146 C 222.858 211.344,221.612 211.670,221.132 211.870 C 220.652 212.071,219.470 212.339,218.506 212.465 C 217.542 212.591,216.335 212.843,215.823 213.025 C 214.625 213.449,213.881 213.562,210.397 213.847 C 208.821 213.976,206.634 214.237,205.538 214.429 C 202.469 214.964,193.003 214.906,188.947 214.326 C 187.219 214.080,184.706 213.806,183.362 213.719 C 182.019 213.632,180.317 213.362,179.582 213.119 C 178.846 212.876,177.433 212.569,176.440 212.437 C 175.448 212.305,174.244 212.045,173.764 211.860 C 173.285 211.674,171.933 211.313,170.760 211.057 C 169.587 210.801,168.398 210.441,168.117 210.258 C 167.837 210.074,167.199 209.850,166.701 209.761 C 166.202 209.672,165.076 209.298,164.199 208.930 C 163.322 208.562,162.473 208.261,162.314 208.261 C 162.154 208.261,161.554 208.011,160.980 207.706 C 160.406 207.401,159.579 207.073,159.142 206.978 C 158.705 206.882,157.783 206.504,157.093 206.136 C 156.404 205.769,155.711 205.468,155.554 205.468 C 155.397 205.468,155.020 205.276,154.714 205.040 C 154.409 204.805,153.845 204.505,153.461 204.374 C 153.077 204.244,152.356 203.860,151.858 203.523 C 151.360 203.185,150.808 202.909,150.631 202.909 C 150.454 202.909,149.776 202.542,149.125 202.094 C 148.474 201.646,147.808 201.280,147.646 201.280 C 147.484 201.280,147.215 201.115,147.047 200.913 C 146.778 200.589,146.022 200.135,143.831 198.982 C 143.497 198.805,142.961 198.435,142.641 198.159 C 142.321 197.882,141.431 197.245,140.663 196.742 C 139.895 196.240,138.691 195.350,137.987 194.766 C 136.463 193.499,135.031 192.410,134.464 192.086 C 133.545 191.560,123.793 182.152,123.793 181.791 C 123.793 181.735,123.066 180.835,122.177 179.792 C 121.288 178.748,120.037 177.213,119.395 176.382 C 118.754 175.550,118.065 174.660,117.865 174.404 C 117.135 173.471,115.844 171.391,115.532 170.643 C 115.081 169.564,113.949 168.937,112.449 168.936 C 111.101 168.935,107.133 168.304,106.565 168.000 C 106.367 167.894,105.005 167.694,103.538 167.556 C 102.072 167.418,100.192 167.096,99.360 166.840 C 98.528 166.584,96.905 166.268,95.753 166.138 C 94.602 166.007,93.031 165.695,92.263 165.444 C 91.495 165.193,90.101 164.881,89.166 164.750 C 88.231 164.619,87.184 164.370,86.839 164.195 C 86.220 163.882,84.763 163.520,82.955 163.229 C 82.443 163.147,81.710 162.933,81.326 162.753 C 80.942 162.574,79.895 162.279,78.999 162.098 C 78.104 161.917,76.742 161.557,75.974 161.299 C 72.393 160.095,71.462 159.807,70.222 159.518 C 66.736 158.708,65.584 156.752,67.512 154.918 C 68.543 153.937,69.255 153.870,70.731 154.612 C 71.055 154.776,71.779 154.979,72.338 155.065 C 72.898 155.151,73.788 155.418,74.316 155.658 C 74.844 155.898,76.009 156.247,76.905 156.432 C 77.801 156.618,79.026 156.994,79.627 157.268 C 80.227 157.542,81.086 157.766,81.534 157.766 C 81.983 157.766,83.166 158.019,84.165 158.327 C 85.163 158.635,86.863 159.061,87.941 159.273 C 89.020 159.485,90.172 159.798,90.501 159.968 C 90.830 160.138,91.832 160.349,92.728 160.436 C 93.624 160.524,95.338 160.856,96.537 161.174 C 97.737 161.491,99.674 161.857,100.842 161.986 C 102.011 162.114,103.270 162.369,103.640 162.551 C 104.010 162.734,105.529 162.997,107.014 163.136 C 108.500 163.276,110.553 163.604,111.576 163.866 C 112.600 164.128,114.904 164.476,116.696 164.638 C 118.487 164.800,120.582 165.101,121.350 165.308 C 122.118 165.514,123.793 165.746,125.073 165.824 C 126.353 165.902,129.023 166.220,131.006 166.532 C 132.990 166.844,136.525 167.199,138.861 167.320 C 141.197 167.442,143.815 167.650,144.678 167.782 C 148.591 168.382,149.614 168.472,155.090 168.699 C 163.745 169.058,169.473 169.374,172.043 169.634 C 173.305 169.762,175.661 169.867,177.279 169.869 C 181.227 169.872,181.903 169.999,182.326 170.818 C 182.806 171.746,182.755 173.193,182.219 173.854 L 181.773 174.404 172.969 174.324 C 164.965 174.251,162.385 174.118,154.392 173.367 C 152.984 173.235,149.738 173.024,147.179 172.899 C 144.619 172.774,141.949 172.568,141.245 172.442 C 139.069 172.053,136.050 171.728,134.613 171.728 C 132.946 171.728,130.056 171.369,126.934 170.775 C 124.447 170.301,121.813 170.191,121.590 170.551 C 121.438 170.798,122.796 173.124,123.093 173.124 C 123.198 173.124,123.545 173.569,123.865 174.113 C 124.185 174.657,125.199 175.887,126.118 176.847 C 127.037 177.807,127.862 178.721,127.951 178.879 C 128.372 179.630,136.108 187.153,136.900 187.583 C 137.050 187.664,137.644 187.807,138.220 187.900 C 138.796 187.992,139.630 188.218,140.074 188.401 C 140.518 188.584,141.670 188.841,142.634 188.974 C 143.598 189.106,145.119 189.460,146.015 189.760 C 146.911 190.061,148.325 190.376,149.156 190.461 C 149.988 190.546,151.454 190.807,152.414 191.042 C 153.374 191.276,155.311 191.595,156.719 191.751 C 158.127 191.906,160.097 192.233,161.096 192.477 C 162.096 192.721,164.504 193.020,166.448 193.143 C 170.611 193.405,173.490 193.711,175.102 194.064 C 178.702 194.851,217.066 194.864,220.593 194.079 C 222.013 193.763,225.414 193.390,229.203 193.135 C 230.931 193.018,233.287 192.721,234.439 192.473 C 235.590 192.226,237.685 191.899,239.092 191.745 C 240.500 191.592,242.437 191.275,243.397 191.041 C 244.357 190.807,245.823 190.541,246.655 190.450 C 247.487 190.359,248.945 190.031,249.895 189.721 C 250.845 189.412,252.363 189.063,253.269 188.946 C 255.384 188.673,258.055 187.758,258.789 187.054 C 259.105 186.751,260.402 185.561,261.672 184.410 C 264.603 181.751,265.885 180.448,267.855 178.127 C 268.725 177.103,269.703 175.989,270.029 175.652 C 271.293 174.346,270.698 173.218,269.072 173.836 C 268.714 173.972,267.215 174.185,265.741 174.309 C 264.266 174.433,262.262 174.738,261.286 174.987 C 260.310 175.235,258.268 175.552,256.748 175.689 C 255.228 175.827,253.131 176.140,252.088 176.384 C 251.044 176.628,248.521 176.933,246.481 177.062 C 244.441 177.191,242.487 177.404,242.139 177.537 C 240.131 178.300,237.689 176.671,238.141 174.869 C 238.477 173.531,239.566 172.941,241.985 172.786 C 243.210 172.708,245.259 172.443,246.539 172.198 C 248.812 171.763,251.630 171.425,255.381 171.139 C 256.405 171.061,257.714 170.843,258.290 170.653 C 258.866 170.464,260.593 170.165,262.129 169.988 C 263.665 169.811,265.550 169.501,266.318 169.300 C 267.086 169.099,268.761 168.827,270.041 168.697 C 271.321 168.566,273.074 168.250,273.937 167.993 C 274.799 167.737,276.213 167.436,277.078 167.325 C 277.943 167.214,279.593 166.862,280.745 166.542 C 281.896 166.223,283.397 165.893,284.078 165.809 C 284.760 165.726,285.807 165.466,286.405 165.232 C 287.003 164.998,288.225 164.730,289.121 164.636 C 290.017 164.542,291.151 164.260,291.643 164.009 C 292.134 163.758,293.286 163.409,294.203 163.233 C 295.120 163.056,296.204 162.745,296.612 162.540 C 297.020 162.335,297.952 162.070,298.683 161.951 C 301.486 161.495,302.269 160.878,302.269 159.125 C 302.269 157.841,303.547 154.216,304.471 152.880 C 306.174 150.416,307.071 149.642,310.258 147.891 L 311.926 146.974 315.765 146.960 L 319.604 146.946 321.366 147.833 C 322.334 148.321,323.411 148.964,323.759 149.263 C 324.638 150.019,325.883 150.220,326.633 149.728 C 327.764 148.987,332.054 144.832,332.054 144.478 C 332.054 144.382,332.223 144.134,332.429 143.927 C 332.926 143.431,334.197 139.982,334.319 138.802 C 334.431 137.719,333.276 134.567,332.373 133.490 C 332.069 133.128,331.819 132.762,331.818 132.676 C 331.807 132.166,325.929 126.818,325.380 126.818 C 325.299 126.818,324.872 126.542,324.430 126.205 C 323.988 125.869,322.722 125.128,321.616 124.559 C 320.509 123.990,319.434 123.371,319.225 123.182 C 319.016 122.994,318.440 122.728,317.945 122.592 C 317.450 122.456,316.783 122.161,316.463 121.937 C 316.143 121.714,315.462 121.397,314.951 121.234 C 314.439 121.071,313.592 120.690,313.069 120.387 C 312.545 120.085,311.916 119.837,311.669 119.837 C 311.422 119.837,310.809 119.617,310.307 119.347 C 309.804 119.078,308.817 118.708,308.113 118.524 C 307.409 118.341,306.513 117.998,306.122 117.762 C 305.730 117.527,305.013 117.263,304.528 117.177 C 304.043 117.091,303.202 116.830,302.660 116.597 C 302.118 116.365,300.891 115.998,299.935 115.781 C 298.979 115.565,297.948 115.226,297.644 115.029 C 296.284 114.144,295.904 115.236,295.710 120.593 C 295.465 127.320,295.102 131.577,294.684 132.623 C 294.485 133.121,294.184 134.505,294.016 135.700 C 293.848 136.894,293.437 138.918,293.103 140.197 C 292.769 141.477,292.496 142.671,292.496 142.851 C 292.496 143.031,292.243 143.712,291.935 144.364 C 290.674 147.028,290.924 150.421,292.262 148.809 C 292.420 148.618,292.952 148.354,293.443 148.221 C 293.934 148.089,294.477 147.840,294.649 147.668 C 294.821 147.496,295.271 147.195,295.649 147.000 C 296.027 146.804,296.535 146.424,296.779 146.155 C 297.022 145.886,297.365 145.666,297.540 145.666 C 298.528 145.666,301.865 141.516,302.123 139.965 C 302.642 136.854,304.319 135.308,306.139 136.263 C 307.541 137.000,307.973 139.851,306.884 141.174 C 306.758 141.326,306.521 141.960,306.357 142.582 C 305.705 145.050,301.645 149.316,298.197 151.155 C 297.557 151.496,297.000 151.861,296.960 151.965 C 296.920 152.070,296.508 152.280,296.045 152.433 C 295.582 152.586,294.730 153.011,294.153 153.377 C 293.575 153.743,292.851 154.043,292.544 154.043 C 292.237 154.043,291.697 154.249,291.344 154.500 C 290.992 154.751,290.190 155.070,289.563 155.209 C 288.936 155.348,287.998 155.666,287.478 155.916 C 286.957 156.165,285.939 156.480,285.214 156.613 C 284.489 156.747,283.449 157.053,282.902 157.292 C 282.355 157.531,281.280 157.798,280.512 157.884 C 279.744 157.971,278.592 158.197,277.952 158.386 C 275.594 159.083,274.427 159.344,272.959 159.501 C 272.133 159.589,271.129 159.799,270.727 159.967 C 270.044 160.252,268.339 160.569,265.620 160.915 C 264.980 160.997,263.723 161.256,262.827 161.491 C 261.931 161.727,260.361 161.986,259.337 162.069 C 258.313 162.151,256.592 162.423,255.513 162.674 C 254.434 162.924,252.131 163.229,250.394 163.351 C 248.658 163.473,246.137 163.733,244.793 163.930 C 243.450 164.127,241.722 164.380,240.954 164.493 C 240.186 164.605,237.307 164.764,234.555 164.845 C 231.803 164.925,228.191 165.166,226.527 165.379 C 222.699 165.870,194.777 165.944,188.482 165.480 C 186.370 165.324,181.030 165.052,176.614 164.874 C 172.199 164.696,167.592 164.435,166.376 164.294 C 165.160 164.153,163.309 163.933,162.262 163.806 C 161.215 163.679,158.492 163.473,156.212 163.348 C 153.931 163.224,151.489 162.967,150.785 162.778 C 150.081 162.589,147.987 162.319,146.131 162.178 C 144.276 162.037,141.396 161.672,139.732 161.368 C 138.069 161.063,135.628 160.698,134.310 160.555 C 132.991 160.413,131.506 160.153,131.009 159.978 C 130.512 159.802,129.339 159.590,128.403 159.506 C 127.467 159.422,125.445 159.057,123.909 158.696 C 122.373 158.334,120.384 157.967,119.488 157.879 C 118.592 157.792,117.440 157.533,116.928 157.303 C 116.417 157.074,115.317 156.813,114.485 156.722 C 113.653 156.632,112.196 156.302,111.247 155.988 C 110.299 155.674,108.833 155.327,107.990 155.218 C 107.147 155.108,105.986 154.802,105.410 154.536 C 104.834 154.271,104.097 154.051,103.772 154.048 C 103.447 154.045,102.190 153.738,100.980 153.365 C 99.769 152.993,98.307 152.614,97.731 152.523 C 97.155 152.433,96.312 152.170,95.858 151.940 C 95.404 151.710,94.214 151.353,93.215 151.146 C 92.215 150.940,91.121 150.629,90.783 150.456 C 90.445 150.282,89.540 150.013,88.773 149.858 C 88.005 149.702,87.062 149.389,86.678 149.161 C 86.294 148.934,85.404 148.616,84.700 148.455 C 83.997 148.294,82.950 147.915,82.375 147.612 C 81.800 147.310,81.195 147.062,81.031 147.062 C 80.866 147.062,80.132 146.763,79.400 146.398 C 78.668 146.032,77.755 145.658,77.371 145.566 C 76.987 145.474,76.463 145.210,76.207 144.979 C 75.951 144.749,75.357 144.437,74.888 144.287 C 74.418 144.136,73.907 143.860,73.752 143.674 C 73.597 143.487,73.038 143.122,72.511 142.864 C 68.204 140.751,64.126 136.646,62.062 132.347 L 61.198 130.547 61.199 127.228 L 61.200 123.909 62.103 122.126 C 63.467 119.431,65.827 116.657,67.707 115.541 C 68.094 115.310,69.204 114.595,70.971 113.437 C 71.419 113.143,72.048 112.826,72.368 112.731 C 72.688 112.637,73.199 112.365,73.504 112.126 C 73.810 111.888,74.215 111.693,74.406 111.693 C 74.596 111.693,75.564 111.326,76.556 110.878 C 77.548 110.430,78.524 110.064,78.725 110.064 C 78.925 110.064,79.435 109.862,79.859 109.615 C 80.282 109.368,81.508 108.949,82.583 108.683 C 83.659 108.418,84.655 108.104,84.798 107.985 C 84.941 107.866,85.789 107.644,86.683 107.491 C 87.576 107.338,88.593 107.067,88.943 106.889 C 89.293 106.711,90.873 106.371,92.455 106.132 C 94.037 105.894,95.531 105.593,95.775 105.464 C 96.019 105.335,96.841 105.102,97.601 104.945 C 99.952 104.461,100.358 103.749,100.632 99.627 C 100.716 98.360,100.968 96.949,101.233 96.253 C 101.484 95.594,101.848 94.146,102.042 93.035 C 102.236 91.923,102.599 90.562,102.850 90.010 C 103.101 89.457,103.308 88.687,103.311 88.298 C 103.314 87.909,103.529 87.176,103.788 86.669 C 104.048 86.162,104.459 84.980,104.700 84.042 C 104.942 83.103,105.297 82.161,105.489 81.947 C 105.682 81.734,105.911 81.245,105.999 80.861 C 106.203 79.968,108.216 75.265,109.168 73.456 C 109.291 73.223,109.603 72.594,109.862 72.060 C 110.122 71.525,110.433 70.931,110.554 70.739 C 110.674 70.547,111.027 69.850,111.337 69.190 C 111.647 68.529,112.023 67.914,112.172 67.821 C 112.322 67.729,112.656 67.170,112.916 66.578 C 113.175 65.987,113.451 65.451,113.529 65.387 C 113.819 65.149,115.649 62.377,115.649 62.176 C 115.649 62.061,115.870 61.716,116.142 61.408 C 116.413 61.101,116.880 60.483,117.181 60.035 C 117.481 59.587,118.042 58.802,118.426 58.290 C 118.811 57.778,119.307 57.097,119.530 56.777 C 120.181 55.839,125.406 49.763,127.034 48.051 C 127.598 47.458,131.332 44.001,132.403 43.080 C 135.903 40.070,138.499 37.929,138.647 37.929 C 138.744 37.929,139.028 37.772,139.278 37.579 C 141.041 36.223,143.279 34.672,144.987 33.624 C 146.678 32.587,149.573 30.904,150.611 30.355 C 150.963 30.170,151.539 29.862,151.891 29.673 C 152.517 29.335,153.283 28.968,154.799 28.277 C 155.215 28.088,155.713 27.837,155.905 27.720 C 156.797 27.175,159.825 25.860,160.529 25.712 C 160.961 25.621,161.641 25.365,162.042 25.142 C 162.442 24.920,164.026 24.341,165.561 23.857 C 167.097 23.373,169.034 22.736,169.866 22.441 C 170.698 22.146,172.059 21.785,172.891 21.640 C 173.723 21.494,174.980 21.177,175.684 20.934 C 176.387 20.692,177.946 20.381,179.147 20.244 C 180.348 20.107,181.500 19.904,181.707 19.794 C 183.532 18.823,196.256 18.384,206.050 18.954 M212.421 49.184 C 212.822 49.612,212.901 49.885,212.772 50.400 C 212.436 51.738,212.002 51.874,208.028 51.885 C 206.044 51.891,201.908 52.050,198.837 52.238 C 186.813 52.977,184.375 52.635,185.337 50.348 C 185.819 49.202,186.468 49.101,193.577 49.070 C 197.110 49.054,201.099 48.967,202.443 48.876 C 208.398 48.474,211.853 48.580,212.421 49.184 M123.611 59.726 C 122.198 61.318,121.001 62.841,121.001 63.046 C 121.001 63.142,120.739 63.524,120.419 63.896 C 120.099 64.268,119.838 64.670,119.837 64.790 C 119.837 64.910,119.628 65.230,119.372 65.502 C 118.632 66.290,117.478 68.706,117.724 68.952 C 117.844 69.071,118.970 69.263,120.227 69.379 C 121.484 69.495,123.024 69.750,123.648 69.946 C 124.272 70.142,125.685 70.407,126.789 70.535 C 128.935 70.783,130.579 71.076,132.642 71.576 C 133.349 71.748,135.300 71.993,136.978 72.120 C 138.655 72.248,140.799 72.509,141.741 72.700 C 142.684 72.890,145.393 73.210,147.760 73.410 C 150.128 73.610,153.636 73.976,155.556 74.223 C 157.475 74.471,161.873 74.781,165.329 74.914 C 168.784 75.047,172.030 75.261,172.542 75.392 C 175.435 76.126,218.615 76.139,221.291 75.406 C 222.231 75.149,229.846 74.696,233.275 74.694 C 234.555 74.693,236.545 74.542,237.696 74.358 C 240.416 73.925,243.704 73.565,247.469 73.291 C 249.133 73.169,251.227 72.913,252.123 72.722 C 253.019 72.531,255.166 72.267,256.894 72.136 C 258.621 72.006,261.291 71.646,262.827 71.338 C 264.363 71.030,266.431 70.712,267.423 70.632 C 268.415 70.552,269.881 70.276,270.681 70.019 C 271.481 69.762,273.150 69.462,274.390 69.353 C 277.344 69.092,277.869 68.520,276.702 66.832 C 276.463 66.485,275.836 65.521,275.309 64.689 C 274.783 63.857,274.141 62.963,273.883 62.703 C 273.626 62.442,273.415 62.142,273.415 62.037 C 273.415 61.856,273.021 61.333,271.513 59.508 C 270.732 58.562,268.574 58.473,266.452 59.298 C 265.758 59.567,264.553 59.853,263.776 59.932 C 262.998 60.012,261.105 60.375,259.570 60.739 C 258.034 61.104,256.055 61.471,255.173 61.555 C 254.291 61.639,253.182 61.844,252.710 62.011 C 252.237 62.178,250.655 62.439,249.195 62.592 C 247.734 62.745,245.858 63.011,245.026 63.183 C 243.462 63.507,239.129 64.031,234.671 64.435 C 233.264 64.563,231.536 64.777,230.832 64.911 C 230.128 65.045,227.510 65.252,225.015 65.372 C 222.519 65.492,218.278 65.698,215.590 65.831 C 199.178 66.642,192.161 66.642,178.709 65.835 C 176.597 65.708,172.932 65.505,170.564 65.383 C 165.967 65.146,164.415 65.001,163.118 64.688 C 162.670 64.580,160.471 64.372,158.232 64.227 C 155.992 64.081,153.008 63.756,151.600 63.503 C 150.192 63.250,147.627 62.887,145.899 62.697 C 144.171 62.507,142.286 62.200,141.710 62.015 C 141.134 61.830,139.757 61.569,138.650 61.435 C 137.542 61.301,135.815 60.970,134.810 60.701 C 133.806 60.431,132.199 60.116,131.240 60.002 C 130.280 59.887,128.943 59.586,128.268 59.334 C 127.593 59.081,126.493 58.813,125.824 58.739 L 124.607 58.603 123.611 59.726 M89.051 60.614 C 91.086 61.262,93.299 62.833,93.925 64.073 C 94.129 64.476,94.519 65.049,94.792 65.348 C 95.609 66.241,95.544 72.424,94.706 73.472 C 94.386 73.873,93.945 74.457,93.725 74.772 C 92.970 75.852,90.763 77.547,89.873 77.729 C 89.396 77.826,88.409 78.035,87.681 78.191 C 85.185 78.729,82.379 77.845,80.306 75.868 C 79.396 75.000,78.650 74.167,78.650 74.017 C 78.650 73.867,78.415 73.427,78.128 73.038 C 75.983 70.137,78.348 63.020,82.024 61.314 C 84.964 59.950,86.492 59.798,89.051 60.614 M84.535 65.533 C 82.794 66.392,81.440 69.635,82.467 70.487 C 82.646 70.636,82.853 70.995,82.926 71.286 C 83.429 73.289,87.215 74.086,89.068 72.577 C 91.130 70.898,91.258 68.368,89.389 66.227 C 88.469 65.174,85.983 64.819,84.535 65.533 M115.758 72.406 C 114.971 72.617,114.488 73.168,114.479 73.866 C 114.475 74.130,114.161 74.757,113.781 75.260 C 113.400 75.762,113.089 76.340,113.089 76.544 C 113.089 76.747,112.844 77.278,112.543 77.724 C 112.243 78.169,111.925 78.830,111.836 79.193 C 111.747 79.555,111.365 80.507,110.986 81.309 C 110.607 82.111,110.297 82.915,110.297 83.096 C 110.297 83.277,110.048 83.895,109.744 84.470 C 109.440 85.044,109.076 86.055,108.936 86.716 C 108.796 87.377,108.478 88.320,108.229 88.811 C 107.980 89.302,107.704 90.175,107.615 90.750 C 107.525 91.326,107.205 92.541,106.903 93.449 C 106.093 95.883,105.944 97.516,106.490 97.990 C 106.995 98.428,110.343 99.360,111.411 99.360 C 111.814 99.360,112.917 99.612,113.861 99.921 C 114.806 100.229,116.197 100.553,116.952 100.640 C 117.707 100.727,119.005 100.991,119.837 101.225 C 120.669 101.460,122.711 101.822,124.375 102.031 C 126.038 102.239,127.849 102.561,128.399 102.747 C 128.948 102.933,130.624 103.191,132.122 103.321 C 133.620 103.451,135.422 103.658,136.126 103.781 C 139.260 104.329,142.329 104.698,145.782 104.943 C 147.830 105.088,150.448 105.357,151.600 105.540 C 152.752 105.724,154.427 105.876,155.323 105.880 C 158.473 105.891,160.307 107.711,158.243 108.778 C 157.126 109.356,148.829 108.962,143.805 108.093 C 142.717 107.905,140.256 107.646,138.336 107.517 C 136.417 107.389,134.369 107.135,133.785 106.953 C 133.202 106.772,131.789 106.548,130.644 106.457 C 129.500 106.366,127.307 106.001,125.771 105.646 C 124.235 105.292,122.141 104.941,121.117 104.867 C 120.093 104.792,118.675 104.531,117.966 104.286 C 117.258 104.041,115.823 103.725,114.779 103.585 C 113.735 103.444,112.273 103.129,111.531 102.885 C 106.945 101.374,104.945 101.537,104.944 103.419 C 104.944 103.938,104.787 105.253,104.596 106.341 C 104.164 108.792,104.142 108.508,104.823 109.318 C 105.361 109.957,105.547 110.014,107.558 110.165 C 108.744 110.255,110.522 110.526,111.509 110.767 C 112.496 111.009,114.748 111.367,116.512 111.561 C 118.277 111.756,120.244 112.071,120.884 112.261 C 121.524 112.451,123.665 112.715,125.641 112.848 C 127.617 112.981,130.549 113.295,132.156 113.547 C 133.763 113.799,136.870 114.120,139.061 114.260 C 141.251 114.401,143.711 114.664,144.529 114.845 C 145.346 115.026,148.266 115.284,151.018 115.418 C 158.372 115.778,163.211 116.093,165.445 116.356 C 172.347 117.171,222.662 117.295,229.436 116.514 C 233.199 116.080,238.759 115.711,244.378 115.522 C 248.289 115.390,249.840 115.236,252.240 114.742 C 252.816 114.623,255.119 114.405,257.359 114.256 C 259.599 114.107,262.688 113.789,264.223 113.549 C 265.759 113.309,268.691 112.997,270.739 112.857 C 272.787 112.717,274.985 112.452,275.625 112.268 C 276.265 112.085,278.200 111.772,279.924 111.573 C 281.648 111.374,283.847 111.016,284.810 110.778 C 285.774 110.540,287.284 110.278,288.167 110.195 C 290.901 109.938,291.103 109.555,290.406 105.951 C 290.163 104.694,289.856 102.461,289.725 100.989 C 289.589 99.460,289.294 97.814,289.038 97.150 C 288.792 96.510,288.473 95.229,288.331 94.304 C 288.188 93.379,287.871 92.070,287.626 91.396 C 287.381 90.721,287.107 89.702,287.017 89.132 C 286.927 88.562,286.662 87.725,286.427 87.271 C 286.192 86.817,285.840 85.828,285.644 85.072 C 285.449 84.317,285.139 83.469,284.956 83.190 C 284.772 82.910,284.499 82.219,284.349 81.654 C 284.198 81.090,283.936 80.471,283.765 80.279 C 283.594 80.087,283.277 79.407,283.061 78.767 C 282.844 78.127,282.484 77.341,282.260 77.022 C 282.036 76.702,281.775 76.178,281.680 75.858 C 281.585 75.538,281.224 74.805,280.878 74.229 C 280.532 73.653,280.180 72.996,280.095 72.770 C 279.820 72.033,274.684 72.069,273.786 72.815 C 273.468 73.079,271.267 73.485,268.645 73.764 C 267.621 73.872,265.893 74.171,264.805 74.427 C 263.717 74.683,261.623 74.962,260.151 75.046 C 258.679 75.131,256.952 75.341,256.312 75.514 C 255.167 75.823,252.171 76.173,248.284 76.452 C 247.196 76.530,245.311 76.802,244.095 77.056 C 242.504 77.389,240.320 77.575,236.300 77.720 C 233.229 77.830,229.407 78.078,227.807 78.271 C 221.419 79.041,217.970 79.138,196.962 79.137 C 175.934 79.136,172.449 79.038,166.143 78.266 C 164.543 78.070,160.669 77.822,157.533 77.714 C 153.754 77.585,151.401 77.401,150.553 77.169 C 149.849 76.977,148.016 76.704,146.481 76.563 C 140.222 75.988,138.749 75.813,137.638 75.514 C 136.998 75.341,135.271 75.135,133.799 75.056 C 132.327 74.976,129.971 74.661,128.563 74.355 C 127.155 74.049,125.011 73.674,123.798 73.522 C 122.584 73.370,121.014 73.061,120.307 72.837 C 118.764 72.348,116.706 72.153,115.758 72.406 M271.303 82.052 C 271.729 82.293,272.333 82.630,272.645 82.801 C 275.109 84.150,276.324 86.702,276.319 90.518 L 276.315 93.659 275.425 94.937 C 270.969 101.329,262.621 100.949,259.255 94.201 C 258.274 92.233,258.201 87.888,259.130 86.634 C 259.400 86.270,259.690 85.752,259.775 85.484 C 260.173 84.231,263.072 82.016,264.805 81.642 C 266.339 81.310,270.449 81.570,271.303 82.052 M265.503 86.678 C 265.203 86.998,264.830 87.260,264.676 87.260 C 264.369 87.260,263.228 89.422,263.141 90.169 C 262.906 92.193,265.327 94.547,267.614 94.515 C 270.518 94.475,272.869 90.831,271.359 88.711 C 271.082 88.321,270.849 87.914,270.841 87.806 C 270.739 86.415,266.577 85.536,265.503 86.678 M95.753 110.294 C 95.113 110.394,93.647 110.739,92.496 111.059 C 91.344 111.379,89.835 111.711,89.143 111.796 C 88.451 111.882,87.579 112.110,87.204 112.304 C 86.829 112.498,85.876 112.795,85.088 112.966 C 84.299 113.136,83.077 113.532,82.373 113.845 C 81.670 114.159,80.688 114.479,80.192 114.557 C 79.696 114.634,79.120 114.851,78.912 115.039 C 78.704 115.226,78.220 115.453,77.836 115.543 C 77.452 115.634,76.614 115.997,75.974 116.350 C 75.334 116.704,74.578 117.063,74.293 117.149 C 73.670 117.337,71.145 118.999,70.738 119.489 C 70.579 119.680,70.351 119.837,70.231 119.837 C 70.033 119.837,69.107 120.759,67.423 122.634 C 67.071 123.026,66.783 123.531,66.783 123.756 C 66.783 123.981,66.700 124.265,66.598 124.386 C 64.398 127.012,67.445 134.290,71.656 136.468 C 72.047 136.670,72.368 136.938,72.368 137.062 C 72.368 137.187,72.501 137.289,72.665 137.289 C 72.828 137.289,73.306 137.603,73.726 137.987 C 74.147 138.371,74.626 138.685,74.790 138.685 C 74.955 138.685,75.524 138.999,76.054 139.383 C 76.584 139.767,77.097 140.081,77.194 140.081 C 77.291 140.081,78.104 140.438,78.999 140.873 C 82.359 142.508,83.206 142.874,83.629 142.874 C 83.868 142.874,84.399 143.081,84.808 143.334 C 85.218 143.587,86.225 143.963,87.046 144.169 C 87.868 144.376,88.782 144.699,89.077 144.887 C 89.372 145.075,90.315 145.371,91.171 145.545 C 92.028 145.719,93.461 146.129,94.357 146.457 C 95.253 146.784,96.248 147.057,96.568 147.062 C 96.888 147.068,97.594 147.274,98.137 147.521 C 98.680 147.767,99.680 148.072,100.360 148.197 C 101.040 148.323,102.166 148.645,102.863 148.913 C 103.560 149.181,104.915 149.511,105.875 149.648 C 106.834 149.784,108.039 150.085,108.551 150.316 C 109.063 150.548,110.239 150.853,111.164 150.995 C 112.089 151.137,113.398 151.455,114.073 151.702 C 114.747 151.949,115.928 152.215,116.696 152.293 C 117.464 152.372,118.930 152.684,119.953 152.989 C 120.977 153.293,122.810 153.651,124.026 153.785 C 125.241 153.918,126.812 154.226,127.516 154.468 C 128.220 154.710,129.634 154.984,130.657 155.076 C 131.681 155.169,133.409 155.439,134.497 155.677 C 135.585 155.915,138.045 156.278,139.965 156.483 C 141.885 156.687,143.989 157.006,144.640 157.190 C 145.292 157.374,147.438 157.629,149.410 157.756 C 151.382 157.883,154.043 158.145,155.323 158.339 C 158.161 158.769,162.041 159.094,167.888 159.391 C 170.320 159.515,173.566 159.775,175.102 159.970 C 177.113 160.225,182.060 160.389,192.787 160.557 C 200.977 160.685,208.045 160.843,208.493 160.907 C 209.288 161.021,220.800 160.732,231.297 160.334 C 234.177 160.225,237.528 159.981,238.743 159.792 C 239.959 159.602,242.577 159.325,244.561 159.175 C 247.713 158.938,252.350 158.335,252.703 158.116 C 252.770 158.075,254.238 157.923,255.964 157.779 C 257.691 157.635,259.523 157.364,260.035 157.176 C 260.547 156.988,262.404 156.630,264.162 156.379 C 265.920 156.129,267.545 155.824,267.774 155.702 C 268.003 155.580,269.077 155.357,270.162 155.207 C 271.247 155.057,272.920 154.689,273.880 154.389 C 274.840 154.090,276.306 153.769,277.138 153.676 C 277.970 153.584,279.098 153.317,279.645 153.083 C 280.192 152.850,281.344 152.539,282.205 152.393 C 284.496 152.005,285.197 151.499,285.663 149.897 C 285.873 149.173,286.230 148.213,286.456 147.763 C 286.682 147.314,286.938 146.335,287.025 145.589 C 287.111 144.842,287.387 143.638,287.637 142.913 C 287.887 142.187,288.254 140.494,288.453 139.151 C 288.651 137.807,288.957 136.393,289.131 136.009 C 290.078 133.932,289.943 128.449,288.961 129.056 C 288.843 129.129,287.699 129.280,286.420 129.391 C 285.141 129.502,283.329 129.807,282.394 130.070 C 281.460 130.332,279.711 130.641,278.509 130.757 C 277.307 130.872,275.271 131.183,273.984 131.447 C 272.698 131.711,270.394 132.036,268.865 132.168 C 267.336 132.301,265.771 132.464,265.387 132.530 C 264.134 132.747,263.243 131.778,263.601 130.587 C 263.928 129.494,263.959 129.480,266.899 129.128 C 268.114 128.983,269.789 128.708,270.622 128.517 C 271.454 128.326,273.444 128.064,275.044 127.935 C 276.643 127.807,278.633 127.506,279.465 127.267 C 280.297 127.028,281.920 126.716,283.072 126.573 C 284.223 126.431,285.794 126.162,286.562 125.977 C 287.330 125.791,288.544 125.502,289.259 125.334 C 289.975 125.167,290.682 124.954,290.830 124.863 C 291.280 124.585,291.203 113.930,290.749 113.553 C 290.357 113.228,289.382 113.309,286.742 113.888 C 285.817 114.091,283.985 114.365,282.670 114.499 C 281.355 114.632,279.770 114.891,279.148 115.074 C 278.526 115.256,276.432 115.569,274.494 115.767 C 272.557 115.966,269.924 116.283,268.645 116.472 C 267.365 116.661,264.171 116.972,261.547 117.165 C 258.924 117.357,256.515 117.618,256.195 117.745 C 255.420 118.053,249.137 118.670,246.655 118.682 C 244.862 118.690,242.446 118.860,233.624 119.596 C 222.478 120.526,173.365 120.536,162.836 119.611 C 154.483 118.877,151.640 118.674,149.714 118.674 C 147.332 118.674,141.407 118.100,140.068 117.739 C 139.592 117.611,137.175 117.352,134.697 117.163 C 132.219 116.975,129.616 116.717,128.912 116.590 C 128.208 116.464,125.590 116.151,123.095 115.896 C 120.599 115.641,118.046 115.278,117.420 115.089 C 116.795 114.899,115.434 114.681,114.395 114.603 C 113.357 114.525,110.961 114.137,109.071 113.742 C 105.225 112.938,104.276 112.991,103.988 114.026 C 103.571 115.522,104.044 124.804,104.699 127.981 C 104.817 128.557,104.975 129.884,105.050 130.929 C 105.124 131.974,105.330 133.178,105.507 133.605 C 105.684 134.031,105.995 135.428,106.198 136.707 C 106.402 137.987,106.779 139.609,107.036 140.311 C 107.799 142.390,107.683 143.832,106.682 144.711 C 104.692 146.459,102.804 144.691,102.061 140.384 C 101.858 139.212,101.489 137.695,101.241 137.015 C 100.981 136.305,100.682 134.565,100.539 132.940 C 100.402 131.380,100.177 129.810,100.039 129.450 C 99.563 128.208,99.314 124.815,99.163 117.510 L 99.011 110.180 97.964 110.146 C 97.388 110.127,96.393 110.194,95.753 110.294 M113.903 125.424 C 114.415 125.541,115.462 125.790,116.230 125.977 C 116.998 126.164,118.619 126.441,119.832 126.594 C 121.046 126.747,122.616 127.054,123.323 127.277 C 124.046 127.505,125.828 127.750,127.400 127.837 C 128.935 127.922,131.187 128.206,132.403 128.468 C 133.618 128.730,134.841 128.989,135.120 129.045 C 136.344 129.288,136.818 130.984,135.896 131.818 C 135.331 132.330,132.957 132.198,129.279 131.450 C 128.009 131.192,125.862 130.881,124.509 130.758 C 123.155 130.635,121.629 130.425,121.117 130.292 C 120.605 130.158,119.778 129.947,119.280 129.821 C 118.782 129.696,117.367 129.497,116.136 129.380 C 112.066 128.992,110.064 128.102,110.064 126.682 C 110.064 125.263,111.360 124.838,113.903 125.424 M148.458 130.306 C 154.660 130.753,156.926 130.962,160.675 131.430 C 162.982 131.717,166.699 131.951,170.448 132.043 C 176.725 132.197,180.976 132.427,185.885 132.875 C 189.478 133.204,221.124 133.028,223.386 132.667 C 226.645 132.147,236.214 132.044,236.567 132.526 C 237.007 133.127,236.960 134.352,236.475 134.933 C 235.536 136.058,223.419 136.471,197.208 136.272 C 179.633 136.139,176.069 136.027,170.332 135.427 C 169.116 135.300,165.817 135.096,163.002 134.973 C 160.186 134.850,156.678 134.585,155.207 134.384 C 150.954 133.802,149.021 133.610,145.686 133.438 C 142.839 133.291,142.516 133.229,142.021 132.734 C 140.676 131.390,141.898 129.698,144.037 129.943 C 144.613 130.008,146.603 130.172,148.458 130.306 M315.044 151.481 C 314.328 151.546,313.595 151.717,313.416 151.860 C 313.236 152.004,312.670 152.255,312.158 152.419 C 307.957 153.764,305.547 161.911,308.546 164.626 C 308.805 164.860,309.017 165.171,309.017 165.316 C 309.017 165.709,310.685 167.170,311.535 167.522 C 311.942 167.691,312.275 167.912,312.275 168.015 C 312.275 168.466,314.057 168.749,316.311 168.657 C 318.828 168.555,318.822 168.557,321.391 166.698 C 322.297 166.043,323.907 163.894,323.912 163.334 C 323.914 163.151,324.124 162.337,324.378 161.524 L 324.842 160.046 324.169 157.893 C 323.798 156.708,323.248 155.468,322.946 155.136 C 320.300 152.233,318.076 151.203,315.044 151.481 M114.369 191.536 C 120.853 194.241,122.099 202.375,116.732 206.961 C 115.508 208.006,114.896 208.260,111.868 208.985 C 110.730 209.257,107.048 208.388,106.087 207.620 C 104.664 206.485,103.463 205.267,103.176 204.669 C 102.988 204.277,102.654 203.642,102.435 203.258 C 101.824 202.188,101.875 197.511,102.509 196.422 C 102.761 195.990,103.091 195.414,103.243 195.142 C 103.806 194.136,106.102 192.182,107.394 191.610 C 110.106 190.411,111.632 190.395,114.369 191.536 M145.836 193.609 C 145.309 193.932,145.495 194.221,146.496 194.640 C 146.936 194.823,147.295 195.082,147.295 195.214 C 147.295 195.346,147.792 195.719,148.400 196.042 C 149.008 196.366,150.029 196.940,150.669 197.318 C 151.309 197.696,152.290 198.220,152.848 198.483 C 153.407 198.745,154.156 199.167,154.513 199.421 C 154.870 199.676,155.314 199.884,155.501 199.884 C 155.687 199.884,156.223 200.144,156.693 200.462 C 157.162 200.781,157.831 201.111,158.179 201.197 C 158.528 201.283,159.476 201.703,160.287 202.131 C 161.097 202.559,161.938 202.909,162.155 202.909 C 162.372 202.909,162.756 203.052,163.008 203.227 C 163.261 203.402,164.095 203.724,164.863 203.943 C 165.631 204.162,166.605 204.542,167.028 204.787 C 167.450 205.033,168.235 205.303,168.773 205.387 C 169.310 205.472,170.197 205.731,170.744 205.964 C 171.291 206.197,172.600 206.560,173.653 206.771 C 174.706 206.982,175.860 207.304,176.218 207.487 C 176.576 207.669,177.774 207.921,178.879 208.047 C 179.985 208.173,182.153 208.526,183.697 208.832 C 189.961 210.075,205.429 210.086,211.635 208.851 C 213.170 208.546,215.317 208.189,216.405 208.059 C 217.493 207.929,218.697 207.665,219.081 207.473 C 219.465 207.281,220.416 207.022,221.195 206.897 C 221.974 206.772,223.230 206.414,223.987 206.100 C 224.744 205.787,225.835 205.459,226.411 205.371 C 226.987 205.284,227.705 205.051,228.006 204.853 C 228.308 204.656,229.303 204.287,230.217 204.034 C 231.131 203.780,232.036 203.433,232.228 203.263 C 232.420 203.092,233.045 202.827,233.616 202.675 C 234.187 202.523,234.905 202.202,235.210 201.962 C 235.516 201.721,236.148 201.455,236.615 201.370 C 237.082 201.285,237.746 201.018,238.090 200.776 C 238.435 200.534,239.063 200.180,239.486 199.988 C 239.910 199.796,240.989 199.231,241.885 198.732 C 242.781 198.233,244.050 197.567,244.706 197.251 C 245.361 196.936,245.970 196.560,246.059 196.416 C 246.149 196.271,246.581 196.003,247.020 195.820 C 247.459 195.636,247.818 195.378,247.818 195.246 C 247.818 195.114,248.316 194.753,248.924 194.443 L 250.029 193.880 249.215 193.667 C 248.328 193.435,246.653 193.651,245.143 194.192 C 244.631 194.375,243.126 194.631,241.798 194.761 C 240.471 194.891,238.952 195.145,238.422 195.325 C 237.893 195.504,235.523 195.829,233.157 196.045 C 230.790 196.262,228.069 196.587,227.109 196.769 C 226.149 196.950,223.269 197.202,220.710 197.329 C 218.150 197.455,215.061 197.663,213.845 197.790 C 206.753 198.532,186.760 198.542,181.850 197.807 C 181.082 197.692,178.518 197.528,176.153 197.444 C 173.730 197.357,170.783 197.102,169.405 196.859 C 168.059 196.622,165.103 196.258,162.836 196.051 C 160.569 195.844,158.128 195.522,157.413 195.335 C 156.697 195.149,155.096 194.884,153.856 194.747 C 152.615 194.611,150.995 194.302,150.257 194.061 C 148.532 193.498,146.375 193.278,145.836 193.609 M109.991 195.933 C 108.780 196.150,108.054 196.752,107.258 198.197 C 105.445 201.493,109.453 205.498,112.810 203.744 C 117.443 201.323,115.162 195.004,109.991 195.933 " stroke="none" fill="#f4f4f4" fill-rule="evenodd"></path></g></svg>